<mxfile host="app.diagrams.net" modified="2024-01-22T02:41:47.125Z" agent="Mozilla/5.0 (Macintosh; Intel Mac OS X 10_15_7) AppleWebKit/537.36 (KHTML, like Gecko) Chrome/120.0.0.0 Safari/537.36" etag="XZgokJWIPSMqcxajY5Dl" version="22.1.21" type="github">
  <diagram name="第 1 页" id="Ca7Q-qf74i0pK8TWvjvN">
    <mxGraphModel dx="1355" dy="819" grid="1" gridSize="10" guides="1" tooltips="1" connect="1" arrows="1" fold="1" page="1" pageScale="1" pageWidth="827" pageHeight="1169" math="0" shadow="0">
      <root>
        <mxCell id="0" />
        <mxCell id="1" parent="0" />
        <mxCell id="2QL2H94MOp4iqxCznGAc-2" value="触发开启混部" style="text;html=1;align=center;verticalAlign=middle;resizable=0;points=[];autosize=1;strokeColor=none;fillColor=none;" vertex="1" parent="1">
          <mxGeometry x="2550.44" y="905.8700000000008" width="90" height="20" as="geometry" />
        </mxCell>
        <mxCell id="2QL2H94MOp4iqxCznGAc-3" style="edgeStyle=orthogonalEdgeStyle;rounded=0;orthogonalLoop=1;jettySize=auto;html=1;exitX=0.5;exitY=1;exitDx=0;exitDy=0;" edge="1" parent="1" source="2QL2H94MOp4iqxCznGAc-4" target="2QL2H94MOp4iqxCznGAc-25">
          <mxGeometry relative="1" as="geometry" />
        </mxCell>
        <mxCell id="2QL2H94MOp4iqxCznGAc-4" value="00:10 &lt;br&gt;配置定时触发&lt;br&gt;loop：在 00:10 - 06:15 期间" style="rounded=0;whiteSpace=wrap;html=1;fillColor=#b0e3e6;strokeColor=#0e8088;" vertex="1" parent="1">
          <mxGeometry x="1918.6" y="464.0000000000009" width="178.15" height="40" as="geometry" />
        </mxCell>
        <mxCell id="2QL2H94MOp4iqxCznGAc-5" value="容器变动" style="rounded=0;whiteSpace=wrap;html=1;fillColor=none;" vertex="1" parent="1">
          <mxGeometry x="2468.02" y="656.2300000000014" width="80.03" height="40" as="geometry" />
        </mxCell>
        <mxCell id="2QL2H94MOp4iqxCznGAc-6" value="" style="endArrow=none;html=1;rounded=0;" edge="1" parent="1">
          <mxGeometry width="50" height="50" relative="1" as="geometry">
            <mxPoint x="2137.1800000000003" y="932.3700000000017" as="sourcePoint" />
            <mxPoint x="3087.75" y="933.6100000000015" as="targetPoint" />
          </mxGeometry>
        </mxCell>
        <mxCell id="2QL2H94MOp4iqxCznGAc-7" value="接口调用&lt;br&gt;强制触发" style="rounded=0;whiteSpace=wrap;html=1;fillColor=none;" vertex="1" parent="1">
          <mxGeometry x="2751.7" y="656.2300000000014" width="90" height="40" as="geometry" />
        </mxCell>
        <mxCell id="2QL2H94MOp4iqxCznGAc-8" value="" style="shape=curlyBracket;whiteSpace=wrap;html=1;rounded=1;flipH=1;size=0.5;rotation=90;" vertex="1" parent="1">
          <mxGeometry x="2585.59" y="386.8100000000013" width="20" height="1010.24" as="geometry" />
        </mxCell>
        <mxCell id="2QL2H94MOp4iqxCznGAc-9" value="06:15 左右 &lt;br&gt;定时触发" style="rounded=0;whiteSpace=wrap;html=1;fillColor=#b0e3e6;strokeColor=#0e8088;" vertex="1" parent="1">
          <mxGeometry x="3993.8899999999994" y="1294.090000000002" width="96" height="40" as="geometry" />
        </mxCell>
        <mxCell id="2QL2H94MOp4iqxCznGAc-10" value="触发关闭混部任务调度" style="text;html=1;align=center;verticalAlign=middle;resizable=0;points=[];autosize=1;strokeColor=none;fillColor=none;" vertex="1" parent="1">
          <mxGeometry x="3962.12" y="1354.090000000002" width="140" height="20" as="geometry" />
        </mxCell>
        <mxCell id="2QL2H94MOp4iqxCznGAc-11" style="edgeStyle=orthogonalEdgeStyle;rounded=0;orthogonalLoop=1;jettySize=auto;html=1;entryX=0.5;entryY=0;entryDx=0;entryDy=0;" edge="1" parent="1" source="2QL2H94MOp4iqxCznGAc-12" target="2QL2H94MOp4iqxCznGAc-15">
          <mxGeometry relative="1" as="geometry" />
        </mxCell>
        <mxCell id="2QL2H94MOp4iqxCznGAc-12" value="当前是否处于混部状态" style="rounded=0;whiteSpace=wrap;html=1;fillColor=none;" vertex="1" parent="1">
          <mxGeometry x="3969.62" y="1384.090000000002" width="134" height="40" as="geometry" />
        </mxCell>
        <mxCell id="2QL2H94MOp4iqxCznGAc-13" value="return" style="rounded=0;whiteSpace=wrap;html=1;fillColor=none;" vertex="1" parent="1">
          <mxGeometry x="3996.8599999999997" y="1564.090000000002" width="80.5" height="30" as="geometry" />
        </mxCell>
        <mxCell id="2QL2H94MOp4iqxCznGAc-14" style="edgeStyle=orthogonalEdgeStyle;rounded=0;orthogonalLoop=1;jettySize=auto;html=1;" edge="1" parent="1" source="2QL2H94MOp4iqxCznGAc-15" target="2QL2H94MOp4iqxCznGAc-17">
          <mxGeometry relative="1" as="geometry" />
        </mxCell>
        <mxCell id="2QL2H94MOp4iqxCznGAc-15" value="关闭 yarn 任务调度" style="rounded=0;whiteSpace=wrap;html=1;fillColor=none;" vertex="1" parent="1">
          <mxGeometry x="3973.24" y="1444.090000000002" width="127.75" height="30" as="geometry" />
        </mxCell>
        <mxCell id="2QL2H94MOp4iqxCznGAc-16" style="edgeStyle=orthogonalEdgeStyle;rounded=0;orthogonalLoop=1;jettySize=auto;html=1;entryX=0.5;entryY=0;entryDx=0;entryDy=0;" edge="1" parent="1" source="2QL2H94MOp4iqxCznGAc-17" target="2QL2H94MOp4iqxCznGAc-13">
          <mxGeometry relative="1" as="geometry" />
        </mxCell>
        <mxCell id="2QL2H94MOp4iqxCznGAc-17" value="以 0 vcores 1 cpulimit 重启 nm" style="rounded=0;whiteSpace=wrap;html=1;fillColor=none;" vertex="1" parent="1">
          <mxGeometry x="3970.6899999999996" y="1504.090000000002" width="131.87" height="40" as="geometry" />
        </mxCell>
        <mxCell id="2QL2H94MOp4iqxCznGAc-18" value="wclBaseService" style="rounded=0;whiteSpace=wrap;html=1;fillColor=#f5f5f5;strokeColor=#666666;align=center;gradientColor=#b3b3b3;" vertex="1" parent="1">
          <mxGeometry x="3820" y="821.4399999999996" width="110.5" height="40" as="geometry" />
        </mxCell>
        <mxCell id="2QL2H94MOp4iqxCznGAc-19" value="预开启混部查询接口" style="rounded=0;whiteSpace=wrap;html=1;fillColor=#dae8fc;align=center;strokeColor=#6c8ebf;gradientColor=#7ea6e0;" vertex="1" parent="1">
          <mxGeometry x="3993.89" y="526.0200000000013" width="116.5" height="38.12" as="geometry" />
        </mxCell>
        <mxCell id="2QL2H94MOp4iqxCznGAc-20" value="已开启混部记录接口" style="rounded=0;whiteSpace=wrap;html=1;fillColor=#d5e8d4;strokeColor=#82b366;align=center;gradientColor=#97d077;" vertex="1" parent="1">
          <mxGeometry x="3993.89" y="606.75" width="119.5" height="38.12" as="geometry" />
        </mxCell>
        <mxCell id="2QL2H94MOp4iqxCznGAc-21" value="混部事件同步接口" style="rounded=0;whiteSpace=wrap;html=1;fillColor=#f8cecc;strokeColor=#b85450;align=center;gradientColor=#ea6b66;" vertex="1" parent="1">
          <mxGeometry x="3992.89" y="686.2199999999993" width="120.5" height="38.12" as="geometry" />
        </mxCell>
        <mxCell id="2QL2H94MOp4iqxCznGAc-22" value="" style="shape=curlyBracket;whiteSpace=wrap;html=1;rounded=1;labelBackgroundColor=#F8F9FA;fontColor=#FF3333;" vertex="1" parent="1">
          <mxGeometry x="3941" y="537.2800000000016" width="20" height="608.32" as="geometry" />
        </mxCell>
        <mxCell id="2QL2H94MOp4iqxCznGAc-23" value="关闭混部记录接口" style="rounded=0;whiteSpace=wrap;html=1;fillColor=#ffcd28;strokeColor=#d79b00;align=center;gradientColor=#ffa500;" vertex="1" parent="1">
          <mxGeometry x="3992.89" y="765.9699999999993" width="120.5" height="38.12" as="geometry" />
        </mxCell>
        <mxCell id="2QL2H94MOp4iqxCznGAc-24" value="接口调用&lt;br&gt;定时触发" style="rounded=0;whiteSpace=wrap;html=1;fillColor=none;" vertex="1" parent="1">
          <mxGeometry x="2964.7" y="656.2300000000014" width="86.41" height="40" as="geometry" />
        </mxCell>
        <mxCell id="2QL2H94MOp4iqxCznGAc-25" value="检测混部状态 / per 30 min" style="rounded=0;whiteSpace=wrap;html=1;fillColor=none;" vertex="1" parent="1">
          <mxGeometry x="1902.12" y="540.0600000000013" width="210.36" height="25.6" as="geometry" />
        </mxCell>
        <mxCell id="2QL2H94MOp4iqxCznGAc-26" style="edgeStyle=orthogonalEdgeStyle;rounded=0;orthogonalLoop=1;jettySize=auto;html=1;entryX=1;entryY=0.5;entryDx=0;entryDy=0;exitX=1;exitY=0.5;exitDx=0;exitDy=0;" edge="1" parent="1" source="2QL2H94MOp4iqxCznGAc-28" target="2QL2H94MOp4iqxCznGAc-25">
          <mxGeometry relative="1" as="geometry" />
        </mxCell>
        <mxCell id="2QL2H94MOp4iqxCznGAc-27" style="edgeStyle=orthogonalEdgeStyle;rounded=0;orthogonalLoop=1;jettySize=auto;html=1;" edge="1" parent="1" source="2QL2H94MOp4iqxCznGAc-28">
          <mxGeometry relative="1" as="geometry">
            <mxPoint x="2091.0999999999995" y="872.8700000000008" as="targetPoint" />
          </mxGeometry>
        </mxCell>
        <mxCell id="2QL2H94MOp4iqxCznGAc-28" value="当前是否触发干扰检测" style="rounded=0;whiteSpace=wrap;html=1;fillColor=none;" vertex="1" parent="1">
          <mxGeometry x="2052.13" y="670.9100000000017" width="77.98" height="50.88" as="geometry" />
        </mxCell>
        <mxCell id="2QL2H94MOp4iqxCznGAc-29" style="edgeStyle=orthogonalEdgeStyle;rounded=0;orthogonalLoop=1;jettySize=auto;html=1;" edge="1" parent="1" source="2QL2H94MOp4iqxCznGAc-30" target="2QL2H94MOp4iqxCznGAc-192">
          <mxGeometry relative="1" as="geometry" />
        </mxCell>
        <mxCell id="2QL2H94MOp4iqxCznGAc-30" value="混部" style="text;html=1;align=center;verticalAlign=middle;resizable=0;points=[];autosize=1;strokeColor=none;fillColor=none;" vertex="1" parent="1">
          <mxGeometry x="1924.6000000000001" y="575.3500000000022" width="40" height="20" as="geometry" />
        </mxCell>
        <mxCell id="2QL2H94MOp4iqxCznGAc-31" value="触发干扰" style="text;html=1;align=center;verticalAlign=middle;resizable=0;points=[];autosize=1;strokeColor=none;fillColor=none;" vertex="1" parent="1">
          <mxGeometry x="2152.12" y="589.5300000000025" width="60" height="20" as="geometry" />
        </mxCell>
        <mxCell id="2QL2H94MOp4iqxCznGAc-32" value="未触发&lt;br&gt;干扰检测" style="text;html=1;align=center;verticalAlign=middle;resizable=0;points=[];autosize=1;strokeColor=none;fillColor=none;" vertex="1" parent="1">
          <mxGeometry x="2092.12" y="751.7200000000021" width="60" height="30" as="geometry" />
        </mxCell>
        <mxCell id="2QL2H94MOp4iqxCznGAc-33" style="edgeStyle=orthogonalEdgeStyle;rounded=0;orthogonalLoop=1;jettySize=auto;html=1;entryX=0.5;entryY=0;entryDx=0;entryDy=0;" edge="1" parent="1">
          <mxGeometry relative="1" as="geometry">
            <mxPoint x="2344.42" y="767.1700000000019" as="sourcePoint" />
            <mxPoint x="2344.169999999999" y="788.2300000000014" as="targetPoint" />
            <Array as="points">
              <mxPoint x="2344.42" y="767.1700000000019" />
              <mxPoint x="2344.42" y="767.1700000000019" />
            </Array>
          </mxGeometry>
        </mxCell>
        <mxCell id="2QL2H94MOp4iqxCznGAc-34" value="yarn容器新增" style="rounded=0;whiteSpace=wrap;html=1;fillColor=none;" vertex="1" parent="1">
          <mxGeometry x="2299.92" y="734.170000000001" width="88" height="30" as="geometry" />
        </mxCell>
        <mxCell id="2QL2H94MOp4iqxCznGAc-35" style="edgeStyle=orthogonalEdgeStyle;rounded=0;orthogonalLoop=1;jettySize=auto;html=1;" edge="1" parent="1" source="2QL2H94MOp4iqxCznGAc-37" target="2QL2H94MOp4iqxCznGAc-40">
          <mxGeometry relative="1" as="geometry" />
        </mxCell>
        <mxCell id="2QL2H94MOp4iqxCznGAc-36" style="edgeStyle=orthogonalEdgeStyle;rounded=0;orthogonalLoop=1;jettySize=auto;html=1;" edge="1" parent="1" source="2QL2H94MOp4iqxCznGAc-37">
          <mxGeometry relative="1" as="geometry">
            <mxPoint x="2344.169999999999" y="877.1700000000019" as="targetPoint" />
          </mxGeometry>
        </mxCell>
        <mxCell id="2QL2H94MOp4iqxCznGAc-37" value="探测nmOperator&lt;br&gt;正常启动" style="rounded=0;whiteSpace=wrap;html=1;fillColor=none;" vertex="1" parent="1">
          <mxGeometry x="2288.17" y="791.2300000000014" width="112" height="40" as="geometry" />
        </mxCell>
        <mxCell id="2QL2H94MOp4iqxCznGAc-38" style="edgeStyle=orthogonalEdgeStyle;rounded=0;orthogonalLoop=1;jettySize=auto;html=1;" edge="1" parent="1" source="2QL2H94MOp4iqxCznGAc-37" target="2QL2H94MOp4iqxCznGAc-37">
          <mxGeometry relative="1" as="geometry" />
        </mxCell>
        <mxCell id="2QL2H94MOp4iqxCznGAc-39" value="检测2次&amp;nbsp; &lt;br&gt;次/ 30s" style="text;html=1;align=center;verticalAlign=middle;resizable=0;points=[];autosize=1;strokeColor=none;fillColor=none;" vertex="1" parent="1">
          <mxGeometry x="2422.17" y="796.2300000000014" width="60" height="30" as="geometry" />
        </mxCell>
        <mxCell id="2QL2H94MOp4iqxCznGAc-40" value="alert" style="rounded=0;whiteSpace=wrap;html=1;fillColor=#e51400;fontColor=#ffffff;strokeColor=#B20000;" vertex="1" parent="1">
          <mxGeometry x="2190.17" y="796.2300000000014" width="69" height="30" as="geometry" />
        </mxCell>
        <mxCell id="2QL2H94MOp4iqxCznGAc-41" value="超过检测时间" style="text;html=1;align=center;verticalAlign=middle;resizable=0;points=[];autosize=1;strokeColor=none;fillColor=none;" vertex="1" parent="1">
          <mxGeometry x="2179.67" y="776.2300000000014" width="90" height="20" as="geometry" />
        </mxCell>
        <mxCell id="2QL2H94MOp4iqxCznGAc-42" style="edgeStyle=orthogonalEdgeStyle;rounded=0;orthogonalLoop=1;jettySize=auto;html=1;" edge="1" parent="1" source="2QL2H94MOp4iqxCznGAc-43">
          <mxGeometry relative="1" as="geometry">
            <mxPoint x="2541.550000000001" y="809.1700000000019" as="targetPoint" />
          </mxGeometry>
        </mxCell>
        <mxCell id="2QL2H94MOp4iqxCznGAc-43" value="发现新的&lt;br&gt;在线容器" style="rounded=0;whiteSpace=wrap;html=1;fillColor=none;" vertex="1" parent="1">
          <mxGeometry x="2497.55" y="739.170000000001" width="88" height="30" as="geometry" />
        </mxCell>
        <mxCell id="2QL2H94MOp4iqxCznGAc-44" style="edgeStyle=orthogonalEdgeStyle;rounded=0;orthogonalLoop=1;jettySize=auto;html=1;" edge="1" parent="1" source="2QL2H94MOp4iqxCznGAc-45">
          <mxGeometry relative="1" as="geometry">
            <mxPoint x="2657.330000000001" y="809.1700000000019" as="targetPoint" />
          </mxGeometry>
        </mxCell>
        <mxCell id="2QL2H94MOp4iqxCznGAc-45" value="yarn容器销毁" style="rounded=0;whiteSpace=wrap;html=1;fillColor=none;" vertex="1" parent="1">
          <mxGeometry x="2613.33" y="739.170000000001" width="88" height="30" as="geometry" />
        </mxCell>
        <mxCell id="2QL2H94MOp4iqxCznGAc-46" value="" style="shape=curlyBracket;whiteSpace=wrap;html=1;rounded=1;flipH=1;size=0.5;rotation=-90;" vertex="1" parent="1">
          <mxGeometry x="2497.3" y="560.760000000002" width="21.47" height="310.94" as="geometry" />
        </mxCell>
        <mxCell id="2QL2H94MOp4iqxCznGAc-47" style="edgeStyle=orthogonalEdgeStyle;rounded=0;orthogonalLoop=1;jettySize=auto;html=1;entryX=0.5;entryY=0;entryDx=0;entryDy=0;" edge="1" parent="1" source="2QL2H94MOp4iqxCznGAc-48" target="2QL2H94MOp4iqxCznGAc-28">
          <mxGeometry relative="1" as="geometry" />
        </mxCell>
        <mxCell id="2QL2H94MOp4iqxCznGAc-48" value="未混部" style="text;html=1;align=center;verticalAlign=middle;resizable=0;points=[];autosize=1;strokeColor=none;fillColor=none;" vertex="1" parent="1">
          <mxGeometry x="2066.12" y="575.3500000000022" width="50" height="20" as="geometry" />
        </mxCell>
        <mxCell id="2QL2H94MOp4iqxCznGAc-49" value="未开启" style="text;html=1;align=center;verticalAlign=middle;resizable=0;points=[];autosize=1;strokeColor=none;fillColor=none;" vertex="1" parent="1">
          <mxGeometry x="2393.17" y="771.2300000000014" width="50" height="20" as="geometry" />
        </mxCell>
        <mxCell id="2QL2H94MOp4iqxCznGAc-50" value="已开启" style="text;html=1;align=center;verticalAlign=middle;resizable=0;points=[];autosize=1;strokeColor=none;fillColor=none;" vertex="1" parent="1">
          <mxGeometry x="2286.45" y="837.1700000000019" width="50" height="20" as="geometry" />
        </mxCell>
        <mxCell id="2QL2H94MOp4iqxCznGAc-51" style="edgeStyle=orthogonalEdgeStyle;rounded=0;orthogonalLoop=1;jettySize=auto;html=1;" edge="1" parent="1" source="2QL2H94MOp4iqxCznGAc-52">
          <mxGeometry relative="1" as="geometry">
            <mxPoint x="2796.7" y="816.9700000000012" as="targetPoint" />
          </mxGeometry>
        </mxCell>
        <mxCell id="2QL2H94MOp4iqxCznGAc-52" value="说明：&lt;br&gt;忽略初资源预测逻辑外的其他&lt;br&gt;逻辑，直接开启混部，需与强&lt;br&gt;制关闭混部接口配合使用" style="text;html=1;align=center;verticalAlign=middle;resizable=0;points=[];autosize=1;strokeColor=none;fillColor=none;" vertex="1" parent="1">
          <mxGeometry x="2711.7" y="719.1700000000019" width="170" height="60" as="geometry" />
        </mxCell>
        <mxCell id="2QL2H94MOp4iqxCznGAc-53" style="edgeStyle=orthogonalEdgeStyle;rounded=0;orthogonalLoop=1;jettySize=auto;html=1;" edge="1" parent="1" source="2QL2H94MOp4iqxCznGAc-54">
          <mxGeometry relative="1" as="geometry">
            <mxPoint x="3005.2000000000007" y="846.9700000000012" as="targetPoint" />
          </mxGeometry>
        </mxCell>
        <mxCell id="2QL2H94MOp4iqxCznGAc-54" value="说明：&lt;br&gt;“定时触发“是”强制触发“的托管版本，&lt;br&gt;传入开闭混部的时间参数，自动开启&lt;br&gt;混部。与“强制触发”一样，混部时，&lt;br&gt;忽略初资源预测逻辑外的其他逻辑，&lt;br&gt;直接开启混部，需与强制关闭混部&lt;br&gt;接口配合使用" style="text;html=1;align=center;verticalAlign=middle;resizable=0;points=[];autosize=1;strokeColor=none;fillColor=none;" vertex="1" parent="1">
          <mxGeometry x="2900.2" y="706.0300000000025" width="210" height="100" as="geometry" />
        </mxCell>
        <mxCell id="2QL2H94MOp4iqxCznGAc-55" value="" style="edgeStyle=orthogonalEdgeStyle;rounded=0;orthogonalLoop=1;jettySize=auto;html=1;entryX=0.5;entryY=0;entryDx=0;entryDy=0;" edge="1" parent="1" source="2QL2H94MOp4iqxCznGAc-56" target="2QL2H94MOp4iqxCznGAc-60">
          <mxGeometry relative="1" as="geometry">
            <mxPoint x="2626.2200000000003" y="991.5500000000011" as="targetPoint" />
          </mxGeometry>
        </mxCell>
        <mxCell id="2QL2H94MOp4iqxCznGAc-56" value="获取新增容器信息" style="rounded=0;whiteSpace=wrap;html=1;fillColor=none;" vertex="1" parent="1">
          <mxGeometry x="2556.2200000000003" y="946.5500000000011" width="140" height="40" as="geometry" />
        </mxCell>
        <mxCell id="2QL2H94MOp4iqxCznGAc-57" value="" style="edgeStyle=orthogonalEdgeStyle;rounded=0;orthogonalLoop=1;jettySize=auto;html=1;" edge="1" parent="1" source="2QL2H94MOp4iqxCznGAc-60" target="2QL2H94MOp4iqxCznGAc-63">
          <mxGeometry relative="1" as="geometry" />
        </mxCell>
        <mxCell id="2QL2H94MOp4iqxCznGAc-58" style="edgeStyle=orthogonalEdgeStyle;rounded=0;orthogonalLoop=1;jettySize=auto;html=1;" edge="1" parent="1" source="2QL2H94MOp4iqxCznGAc-60">
          <mxGeometry relative="1" as="geometry">
            <mxPoint x="2754.22" y="1046.550000000001" as="targetPoint" />
          </mxGeometry>
        </mxCell>
        <mxCell id="2QL2H94MOp4iqxCznGAc-59" style="edgeStyle=orthogonalEdgeStyle;rounded=0;orthogonalLoop=1;jettySize=auto;html=1;entryX=1;entryY=0.5;entryDx=0;entryDy=0;strokeColor=#000000;" edge="1" parent="1" source="2QL2H94MOp4iqxCznGAc-60" target="2QL2H94MOp4iqxCznGAc-266">
          <mxGeometry relative="1" as="geometry" />
        </mxCell>
        <mxCell id="2QL2H94MOp4iqxCznGAc-60" value="&lt;span&gt;当前物理机&lt;/span&gt;&lt;br&gt;&lt;span&gt;是否存在yarn容器&lt;/span&gt;" style="rounded=0;whiteSpace=wrap;html=1;fillColor=none;" vertex="1" parent="1">
          <mxGeometry x="2556.2200000000003" y="1027.550000000001" width="140" height="38" as="geometry" />
        </mxCell>
        <mxCell id="2QL2H94MOp4iqxCznGAc-61" value="" style="edgeStyle=orthogonalEdgeStyle;rounded=0;orthogonalLoop=1;jettySize=auto;html=1;" edge="1" parent="1" source="2QL2H94MOp4iqxCznGAc-63" target="2QL2H94MOp4iqxCznGAc-68">
          <mxGeometry relative="1" as="geometry" />
        </mxCell>
        <mxCell id="2QL2H94MOp4iqxCznGAc-62" style="edgeStyle=orthogonalEdgeStyle;rounded=0;orthogonalLoop=1;jettySize=auto;html=1;entryX=0.5;entryY=1;entryDx=0;entryDy=0;" edge="1" parent="1" source="2QL2H94MOp4iqxCznGAc-63" target="2QL2H94MOp4iqxCznGAc-112">
          <mxGeometry relative="1" as="geometry" />
        </mxCell>
        <mxCell id="2QL2H94MOp4iqxCznGAc-63" value="请求中心服务当前物理机是否可开启混部" style="rounded=0;whiteSpace=wrap;html=1;fillColor=none;" vertex="1" parent="1">
          <mxGeometry x="2556.2200000000003" y="1101.550000000001" width="140" height="50" as="geometry" />
        </mxCell>
        <mxCell id="2QL2H94MOp4iqxCznGAc-64" value="不允许" style="text;html=1;align=center;verticalAlign=middle;resizable=0;points=[];autosize=1;strokeColor=none;fillColor=none;" vertex="1" parent="1">
          <mxGeometry x="2705.21" y="1101.550000000001" width="50" height="20" as="geometry" />
        </mxCell>
        <mxCell id="2QL2H94MOp4iqxCznGAc-65" value="&lt;span style=&quot;color: rgb(0, 0, 0); font-family: helvetica; font-size: 12px; font-style: normal; font-weight: 400; letter-spacing: normal; text-align: center; text-indent: 0px; text-transform: none; word-spacing: 0px; background-color: rgb(248, 249, 250); display: inline; float: none;&quot;&gt;不存在 || &lt;br&gt;混部状态为开启 &amp;amp;&amp;amp; &lt;br&gt;不在混部时间&lt;/span&gt;" style="text;whiteSpace=wrap;html=1;" vertex="1" parent="1">
          <mxGeometry x="2446.29" y="997.6000000000013" width="113.38" height="67.95" as="geometry" />
        </mxCell>
        <mxCell id="2QL2H94MOp4iqxCznGAc-66" style="edgeStyle=orthogonalEdgeStyle;rounded=0;orthogonalLoop=1;jettySize=auto;html=1;entryX=1;entryY=0.5;entryDx=0;entryDy=0;" edge="1" parent="1" source="2QL2H94MOp4iqxCznGAc-68" target="2QL2H94MOp4iqxCznGAc-76">
          <mxGeometry relative="1" as="geometry" />
        </mxCell>
        <mxCell id="2QL2H94MOp4iqxCznGAc-67" style="edgeStyle=orthogonalEdgeStyle;rounded=0;orthogonalLoop=1;jettySize=auto;html=1;entryX=0;entryY=0.5;entryDx=0;entryDy=0;" edge="1" parent="1" source="2QL2H94MOp4iqxCznGAc-68" target="2QL2H94MOp4iqxCznGAc-78">
          <mxGeometry relative="1" as="geometry" />
        </mxCell>
        <mxCell id="2QL2H94MOp4iqxCznGAc-68" value="判断当前混部状态" style="rounded=0;whiteSpace=wrap;html=1;fillColor=none;" vertex="1" parent="1">
          <mxGeometry x="2556.42" y="1202.210000000001" width="140" height="30" as="geometry" />
        </mxCell>
        <mxCell id="2QL2H94MOp4iqxCznGAc-69" value="支持" style="text;html=1;align=center;verticalAlign=middle;resizable=0;points=[];autosize=1;strokeColor=none;fillColor=none;" vertex="1" parent="1">
          <mxGeometry x="2626.2200000000003" y="996.5500000000011" width="40" height="20" as="geometry" />
        </mxCell>
        <mxCell id="2QL2H94MOp4iqxCznGAc-70" value="存在" style="text;html=1;align=center;verticalAlign=middle;resizable=0;points=[];autosize=1;strokeColor=none;fillColor=none;" vertex="1" parent="1">
          <mxGeometry x="2626.2200000000003" y="1071.550000000001" width="40" height="20" as="geometry" />
        </mxCell>
        <mxCell id="2QL2H94MOp4iqxCznGAc-71" value="允许" style="text;html=1;align=center;verticalAlign=middle;resizable=0;points=[];autosize=1;strokeColor=none;fillColor=none;" vertex="1" parent="1">
          <mxGeometry x="2630.2200000000003" y="1151.550000000001" width="40" height="20" as="geometry" />
        </mxCell>
        <mxCell id="2QL2H94MOp4iqxCznGAc-72" value="alert" style="rounded=0;whiteSpace=wrap;html=1;fillColor=#e51400;fontColor=#ffffff;strokeColor=#B20000;" vertex="1" parent="1">
          <mxGeometry x="2487.2200000000003" y="946.5500000000011" width="69" height="30" as="geometry" />
        </mxCell>
        <mxCell id="2QL2H94MOp4iqxCznGAc-73" value="绑核环境发现yarn容器" style="text;html=1;align=center;verticalAlign=middle;resizable=0;points=[];autosize=1;strokeColor=none;fillColor=none;" vertex="1" parent="1">
          <mxGeometry x="2357.2200000000003" y="951.5500000000011" width="130" height="20" as="geometry" />
        </mxCell>
        <mxCell id="2QL2H94MOp4iqxCznGAc-74" value="预开启混部查询接口" style="rounded=0;whiteSpace=wrap;html=1;fillColor=#dae8fc;align=center;strokeColor=#6c8ebf;gradientColor=#7ea6e0;" vertex="1" parent="1">
          <mxGeometry x="2435.7200000000003" y="1101.550000000001" width="120.5" height="38.12" as="geometry" />
        </mxCell>
        <mxCell id="2QL2H94MOp4iqxCznGAc-75" value="" style="edgeStyle=orthogonalEdgeStyle;rounded=0;orthogonalLoop=1;jettySize=auto;html=1;entryX=0.5;entryY=0;entryDx=0;entryDy=0;" edge="1" parent="1" source="2QL2H94MOp4iqxCznGAc-76" target="2QL2H94MOp4iqxCznGAc-81">
          <mxGeometry relative="1" as="geometry" />
        </mxCell>
        <mxCell id="2QL2H94MOp4iqxCznGAc-76" value="处于混部状态" style="rounded=0;whiteSpace=wrap;html=1;fillColor=none;" vertex="1" parent="1">
          <mxGeometry x="2337.15" y="1197.210000000001" width="140" height="40" as="geometry" />
        </mxCell>
        <mxCell id="2QL2H94MOp4iqxCznGAc-77" style="edgeStyle=orthogonalEdgeStyle;rounded=0;orthogonalLoop=1;jettySize=auto;html=1;" edge="1" parent="1" source="2QL2H94MOp4iqxCznGAc-78" target="2QL2H94MOp4iqxCznGAc-85">
          <mxGeometry relative="1" as="geometry" />
        </mxCell>
        <mxCell id="2QL2H94MOp4iqxCznGAc-78" value="处于非混部状态" style="rounded=0;whiteSpace=wrap;html=1;fillColor=none;" vertex="1" parent="1">
          <mxGeometry x="2776.7900000000004" y="1197.210000000001" width="140" height="40" as="geometry" />
        </mxCell>
        <mxCell id="2QL2H94MOp4iqxCznGAc-79" style="edgeStyle=orthogonalEdgeStyle;rounded=0;orthogonalLoop=1;jettySize=auto;html=1;" edge="1" parent="1" source="2QL2H94MOp4iqxCznGAc-81" target="2QL2H94MOp4iqxCznGAc-95">
          <mxGeometry relative="1" as="geometry" />
        </mxCell>
        <mxCell id="2QL2H94MOp4iqxCznGAc-80" style="edgeStyle=orthogonalEdgeStyle;rounded=0;orthogonalLoop=1;jettySize=auto;html=1;entryX=1;entryY=0.5;entryDx=0;entryDy=0;strokeColor=#000000;" edge="1" parent="1" source="2QL2H94MOp4iqxCznGAc-81" target="2QL2H94MOp4iqxCznGAc-268">
          <mxGeometry relative="1" as="geometry" />
        </mxCell>
        <mxCell id="2QL2H94MOp4iqxCznGAc-81" value="混部时间外" style="rounded=0;whiteSpace=wrap;html=1;fillColor=none;" vertex="1" parent="1">
          <mxGeometry x="2337.15" y="1267.210000000001" width="140" height="40" as="geometry" />
        </mxCell>
        <mxCell id="2QL2H94MOp4iqxCznGAc-82" value="是" style="text;html=1;align=center;verticalAlign=middle;resizable=0;points=[];autosize=1;strokeColor=none;fillColor=none;" vertex="1" parent="1">
          <mxGeometry x="2307.15" y="1267.210000000001" width="30" height="20" as="geometry" />
        </mxCell>
        <mxCell id="2QL2H94MOp4iqxCznGAc-83" value="否" style="text;html=1;align=center;verticalAlign=middle;resizable=0;points=[];autosize=1;strokeColor=none;fillColor=none;" vertex="1" parent="1">
          <mxGeometry x="2408.15" y="1307.210000000001" width="30" height="20" as="geometry" />
        </mxCell>
        <mxCell id="2QL2H94MOp4iqxCznGAc-84" style="edgeStyle=orthogonalEdgeStyle;rounded=0;orthogonalLoop=1;jettySize=auto;html=1;" edge="1" parent="1" source="2QL2H94MOp4iqxCznGAc-85">
          <mxGeometry relative="1" as="geometry">
            <mxPoint x="2846.8260869565224" y="1326.2900000000009" as="targetPoint" />
          </mxGeometry>
        </mxCell>
        <mxCell id="2QL2H94MOp4iqxCznGAc-85" value="处于混部时间窗口" style="rounded=0;whiteSpace=wrap;html=1;fillColor=none;" vertex="1" parent="1">
          <mxGeometry x="2776.79" y="1261.210000000001" width="140" height="40" as="geometry" />
        </mxCell>
        <mxCell id="2QL2H94MOp4iqxCznGAc-86" value="" style="edgeStyle=orthogonalEdgeStyle;rounded=0;orthogonalLoop=1;jettySize=auto;html=1;entryX=0.5;entryY=0;entryDx=0;entryDy=0;exitX=0;exitY=0.5;exitDx=0;exitDy=0;" edge="1" parent="1" source="2QL2H94MOp4iqxCznGAc-85" target="2QL2H94MOp4iqxCznGAc-98">
          <mxGeometry relative="1" as="geometry">
            <Array as="points">
              <mxPoint x="2622.42" y="1281.210000000001" />
            </Array>
          </mxGeometry>
        </mxCell>
        <mxCell id="2QL2H94MOp4iqxCznGAc-87" value="否" style="text;html=1;align=center;verticalAlign=middle;resizable=0;points=[];autosize=1;strokeColor=none;fillColor=none;" vertex="1" parent="1">
          <mxGeometry x="2735.57" y="1254.210000000001" width="30" height="20" as="geometry" />
        </mxCell>
        <mxCell id="2QL2H94MOp4iqxCznGAc-88" value="是" style="text;html=1;align=center;verticalAlign=middle;resizable=0;points=[];autosize=1;strokeColor=none;fillColor=none;" vertex="1" parent="1">
          <mxGeometry x="2795.7000000000003" y="1301.210000000001" width="30" height="20" as="geometry" />
        </mxCell>
        <mxCell id="2QL2H94MOp4iqxCznGAc-89" style="edgeStyle=orthogonalEdgeStyle;rounded=0;orthogonalLoop=1;jettySize=auto;html=1;entryX=0.5;entryY=0;entryDx=0;entryDy=0;exitX=0.5;exitY=1;exitDx=0;exitDy=0;" edge="1" parent="1" source="2QL2H94MOp4iqxCznGAc-91" target="2QL2H94MOp4iqxCznGAc-100">
          <mxGeometry relative="1" as="geometry" />
        </mxCell>
        <mxCell id="2QL2H94MOp4iqxCznGAc-90" style="edgeStyle=orthogonalEdgeStyle;rounded=0;orthogonalLoop=1;jettySize=auto;html=1;exitX=0;exitY=0.25;exitDx=0;exitDy=0;entryX=1;entryY=0.5;entryDx=0;entryDy=0;" edge="1" parent="1" source="2QL2H94MOp4iqxCznGAc-91" target="2QL2H94MOp4iqxCznGAc-98">
          <mxGeometry relative="1" as="geometry" />
        </mxCell>
        <mxCell id="2QL2H94MOp4iqxCznGAc-91" value="资源预测&lt;br&gt;在线容器CPU资源按照0.45buffer预留&lt;br&gt;离线容器资源 &lt;br&gt;CPU按5核倍数分配&lt;br&gt;同时，cpu按照1倍超分&lt;br&gt;CPU:MEM按照 1:3 ～1:8动态分配" style="rounded=0;whiteSpace=wrap;html=1;fillColor=none;" vertex="1" parent="1">
          <mxGeometry x="2740.58" y="1326.2900000000009" width="244.42" height="96.6" as="geometry" />
        </mxCell>
        <mxCell id="2QL2H94MOp4iqxCznGAc-92" value="资源不足" style="text;html=1;align=center;verticalAlign=middle;resizable=0;points=[];autosize=1;strokeColor=none;fillColor=none;" vertex="1" parent="1">
          <mxGeometry x="2684.42" y="1367.210000000001" width="60" height="20" as="geometry" />
        </mxCell>
        <mxCell id="2QL2H94MOp4iqxCznGAc-93" style="edgeStyle=orthogonalEdgeStyle;rounded=0;orthogonalLoop=1;jettySize=auto;html=1;entryX=0;entryY=0.5;entryDx=0;entryDy=0;" edge="1" parent="1" source="2QL2H94MOp4iqxCznGAc-95" target="2QL2H94MOp4iqxCznGAc-98">
          <mxGeometry relative="1" as="geometry" />
        </mxCell>
        <mxCell id="2QL2H94MOp4iqxCznGAc-94" style="edgeStyle=orthogonalEdgeStyle;rounded=0;orthogonalLoop=1;jettySize=auto;html=1;exitX=0.5;exitY=1;exitDx=0;exitDy=0;" edge="1" parent="1" source="2QL2H94MOp4iqxCznGAc-95" target="2QL2H94MOp4iqxCznGAc-117">
          <mxGeometry relative="1" as="geometry">
            <mxPoint x="2565.1400000000003" y="1484.3300000000017" as="targetPoint" />
          </mxGeometry>
        </mxCell>
        <mxCell id="2QL2H94MOp4iqxCznGAc-95" value="新增online容器" style="rounded=0;whiteSpace=wrap;html=1;fillColor=none;" vertex="1" parent="1">
          <mxGeometry x="2337.15" y="1342.210000000001" width="140" height="40" as="geometry" />
        </mxCell>
        <mxCell id="2QL2H94MOp4iqxCznGAc-96" value="否" style="text;html=1;align=center;verticalAlign=middle;resizable=0;points=[];autosize=1;strokeColor=none;fillColor=none;" vertex="1" parent="1">
          <mxGeometry x="2505.67" y="1337.210000000001" width="30" height="20" as="geometry" />
        </mxCell>
        <mxCell id="2QL2H94MOp4iqxCznGAc-97" value="是" style="text;html=1;align=center;verticalAlign=middle;resizable=0;points=[];autosize=1;strokeColor=none;fillColor=none;" vertex="1" parent="1">
          <mxGeometry x="2413.6800000000003" y="1387.210000000001" width="30" height="20" as="geometry" />
        </mxCell>
        <mxCell id="2QL2H94MOp4iqxCznGAc-98" value="return" style="rounded=0;whiteSpace=wrap;html=1;fillColor=none;" vertex="1" parent="1">
          <mxGeometry x="2576.51" y="1347.210000000001" width="92.5" height="30" as="geometry" />
        </mxCell>
        <mxCell id="2QL2H94MOp4iqxCznGAc-99" style="edgeStyle=orthogonalEdgeStyle;rounded=0;orthogonalLoop=1;jettySize=auto;html=1;entryX=0;entryY=0.5;entryDx=0;entryDy=0;fontColor=#000000;strokeColor=#000000;" edge="1" parent="1" source="2QL2H94MOp4iqxCznGAc-100" target="2QL2H94MOp4iqxCznGAc-137">
          <mxGeometry relative="1" as="geometry" />
        </mxCell>
        <mxCell id="2QL2H94MOp4iqxCznGAc-100" value="开启 混部" style="rounded=0;whiteSpace=wrap;html=1;fillColor=none;" vertex="1" parent="1">
          <mxGeometry x="2807.18" y="1445.340000000001" width="85" height="32" as="geometry" />
        </mxCell>
        <mxCell id="2QL2H94MOp4iqxCznGAc-101" value="06:50&lt;br&gt;配置定时触发" style="rounded=0;whiteSpace=wrap;html=1;fillColor=#b0e3e6;strokeColor=#0e8088;" vertex="1" parent="1">
          <mxGeometry x="4170.17" y="1294.090000000002" width="96" height="40" as="geometry" />
        </mxCell>
        <mxCell id="2QL2H94MOp4iqxCznGAc-102" value="异常情况" style="rounded=0;whiteSpace=wrap;html=1;fillColor=none;dashed=1;" vertex="1" parent="1">
          <mxGeometry x="4299.65" y="1295.090000000002" width="100" height="40" as="geometry" />
        </mxCell>
        <mxCell id="2QL2H94MOp4iqxCznGAc-103" style="edgeStyle=orthogonalEdgeStyle;rounded=0;orthogonalLoop=1;jettySize=auto;html=1;entryX=0.5;entryY=0;entryDx=0;entryDy=0;exitX=0.5;exitY=1;exitDx=0;exitDy=0;" edge="1" parent="1" source="2QL2H94MOp4iqxCznGAc-100" target="2QL2H94MOp4iqxCznGAc-115">
          <mxGeometry relative="1" as="geometry">
            <mxPoint x="2849.4000000000005" y="1524.3500000000013" as="sourcePoint" />
            <mxPoint x="2849.755" y="1496.3500000000013" as="targetPoint" />
          </mxGeometry>
        </mxCell>
        <mxCell id="2QL2H94MOp4iqxCznGAc-104" style="edgeStyle=orthogonalEdgeStyle;rounded=0;orthogonalLoop=1;jettySize=auto;html=1;entryX=0.5;entryY=0;entryDx=0;entryDy=0;" edge="1" parent="1" source="2QL2H94MOp4iqxCznGAc-107" target="2QL2H94MOp4iqxCznGAc-108">
          <mxGeometry relative="1" as="geometry" />
        </mxCell>
        <mxCell id="2QL2H94MOp4iqxCznGAc-105" style="edgeStyle=orthogonalEdgeStyle;rounded=0;orthogonalLoop=1;jettySize=auto;html=1;strokeColor=#000000;entryX=1;entryY=0.5;entryDx=0;entryDy=0;" edge="1" parent="1" source="2QL2H94MOp4iqxCznGAc-107" target="2QL2H94MOp4iqxCznGAc-215">
          <mxGeometry relative="1" as="geometry" />
        </mxCell>
        <mxCell id="2QL2H94MOp4iqxCznGAc-106" value="首次启动-超分&lt;br&gt;vcore / core = 4 / 3&amp;nbsp;" style="edgeLabel;html=1;align=center;verticalAlign=middle;resizable=0;points=[];" vertex="1" connectable="0" parent="2QL2H94MOp4iqxCznGAc-105">
          <mxGeometry x="0.0765" y="2" relative="1" as="geometry">
            <mxPoint x="-164" y="-2" as="offset" />
          </mxGeometry>
        </mxCell>
        <mxCell id="2QL2H94MOp4iqxCznGAc-107" value="offline 容器绑核及扩容&lt;br&gt;+&lt;br&gt;以新规格 重启 offline容器中的 nm（超分：vcores / cores =&amp;nbsp; 4 / 3 ）&lt;br&gt;+&lt;br&gt;开启 yarn job 调度" style="rounded=0;whiteSpace=wrap;html=1;fillColor=none;" vertex="1" parent="1">
          <mxGeometry x="2750.69" y="1560.430000000002" width="197.97" height="90.12" as="geometry" />
        </mxCell>
        <mxCell id="2QL2H94MOp4iqxCznGAc-108" value="已开启混部记录接口" style="rounded=0;whiteSpace=wrap;html=1;fillColor=#d5e8d4;strokeColor=#82b366;align=center;gradientColor=#97d077;" vertex="1" parent="1">
          <mxGeometry x="2789.9300000000003" y="1672.8100000000013" width="119.5" height="38.12" as="geometry" />
        </mxCell>
        <mxCell id="2QL2H94MOp4iqxCznGAc-109" value="alert" style="rounded=0;whiteSpace=wrap;html=1;fillColor=#e51400;fontColor=#ffffff;strokeColor=#B20000;" vertex="1" parent="1">
          <mxGeometry x="2260.4399999999996" y="1327.210000000001" width="52" height="25" as="geometry" />
        </mxCell>
        <mxCell id="2QL2H94MOp4iqxCznGAc-110" value="此前存在yarn，&lt;br&gt;现发现新yarn。" style="text;html=1;align=center;verticalAlign=middle;resizable=0;points=[];autosize=1;strokeColor=none;fillColor=none;" vertex="1" parent="1">
          <mxGeometry x="2244.42" y="1352.210000000001" width="100" height="30" as="geometry" />
        </mxCell>
        <mxCell id="2QL2H94MOp4iqxCznGAc-111" value="不存在" style="text;html=1;align=center;verticalAlign=middle;resizable=0;points=[];autosize=1;strokeColor=none;fillColor=none;" vertex="1" parent="1">
          <mxGeometry x="2705.21" y="1016.5500000000011" width="50" height="20" as="geometry" />
        </mxCell>
        <mxCell id="2QL2H94MOp4iqxCznGAc-112" value="return" style="rounded=0;whiteSpace=wrap;html=1;fillColor=none;" vertex="1" parent="1">
          <mxGeometry x="2755.21" y="1031.550000000001" width="59.01" height="25" as="geometry" />
        </mxCell>
        <mxCell id="2QL2H94MOp4iqxCznGAc-113" value="资源符合混部需求" style="text;html=1;align=center;verticalAlign=middle;resizable=0;points=[];autosize=1;strokeColor=none;fillColor=none;" vertex="1" parent="1">
          <mxGeometry x="2875.0000000000005" y="1422.4300000000012" width="110" height="20" as="geometry" />
        </mxCell>
        <mxCell id="2QL2H94MOp4iqxCznGAc-114" style="edgeStyle=orthogonalEdgeStyle;rounded=0;orthogonalLoop=1;jettySize=auto;html=1;strokeColor=#000000;" edge="1" parent="1" source="2QL2H94MOp4iqxCznGAc-115" target="2QL2H94MOp4iqxCznGAc-107">
          <mxGeometry relative="1" as="geometry" />
        </mxCell>
        <mxCell id="2QL2H94MOp4iqxCznGAc-115" value="online 容器绑核" style="rounded=0;whiteSpace=wrap;html=1;fillColor=none;" vertex="1" parent="1">
          <mxGeometry x="2785.8100000000004" y="1496.1900000000014" width="127.75" height="40" as="geometry" />
        </mxCell>
        <mxCell id="2QL2H94MOp4iqxCznGAc-116" style="edgeStyle=orthogonalEdgeStyle;rounded=0;orthogonalLoop=1;jettySize=auto;html=1;entryX=0.5;entryY=1;entryDx=0;entryDy=0;" edge="1" parent="1" source="2QL2H94MOp4iqxCznGAc-117" target="2QL2H94MOp4iqxCznGAc-98">
          <mxGeometry relative="1" as="geometry" />
        </mxCell>
        <mxCell id="2QL2H94MOp4iqxCznGAc-117" value="online 容器绑核" style="rounded=0;whiteSpace=wrap;html=1;fillColor=none;" vertex="1" parent="1">
          <mxGeometry x="2343.27" y="1424.3300000000017" width="127.75" height="40" as="geometry" />
        </mxCell>
        <mxCell id="2QL2H94MOp4iqxCznGAc-118" style="edgeStyle=orthogonalEdgeStyle;rounded=0;orthogonalLoop=1;jettySize=auto;html=1;entryX=0.5;entryY=0;entryDx=0;entryDy=0;" edge="1" parent="1" source="2QL2H94MOp4iqxCznGAc-120" target="2QL2H94MOp4iqxCznGAc-124">
          <mxGeometry relative="1" as="geometry" />
        </mxCell>
        <mxCell id="2QL2H94MOp4iqxCznGAc-119" value="goroutine" style="edgeStyle=orthogonalEdgeStyle;rounded=0;orthogonalLoop=1;jettySize=auto;html=1;entryX=0;entryY=0;entryDx=0;entryDy=0;dashed=1;dashPattern=1 2;exitX=1;exitY=0.25;exitDx=0;exitDy=0;" edge="1" parent="1" source="2QL2H94MOp4iqxCznGAc-120" target="2QL2H94MOp4iqxCznGAc-131">
          <mxGeometry x="-0.207" relative="1" as="geometry">
            <Array as="points">
              <mxPoint x="3306" y="1230.8100000000013" />
            </Array>
            <mxPoint as="offset" />
          </mxGeometry>
        </mxCell>
        <mxCell id="2QL2H94MOp4iqxCznGAc-120" value="当前是否为 binhai2 绑核环境" style="rounded=0;whiteSpace=wrap;html=1;fillColor=none;" vertex="1" parent="1">
          <mxGeometry x="3146.31" y="1221.210000000001" width="160" height="40" as="geometry" />
        </mxCell>
        <mxCell id="2QL2H94MOp4iqxCznGAc-121" style="edgeStyle=orthogonalEdgeStyle;rounded=0;orthogonalLoop=1;jettySize=auto;html=1;" edge="1" parent="1" source="2QL2H94MOp4iqxCznGAc-122">
          <mxGeometry relative="1" as="geometry">
            <mxPoint x="3419.3363636363633" y="1160.6200000000017" as="targetPoint" />
          </mxGeometry>
        </mxCell>
        <mxCell id="2QL2H94MOp4iqxCznGAc-122" value="wclAgentHybrid 启动" style="rounded=0;whiteSpace=wrap;html=1;fillColor=none;" vertex="1" parent="1">
          <mxGeometry x="3344.32" y="1100.6200000000017" width="150" height="30" as="geometry" />
        </mxCell>
        <mxCell id="2QL2H94MOp4iqxCznGAc-123" value="config" style="rounded=0;whiteSpace=wrap;html=1;fillColor=none;" vertex="1" parent="1">
          <mxGeometry x="3542.62" y="1170.2200000000012" width="90" height="30" as="geometry" />
        </mxCell>
        <mxCell id="2QL2H94MOp4iqxCznGAc-124" value="return" style="rounded=0;whiteSpace=wrap;html=1;fillColor=none;" vertex="1" parent="1">
          <mxGeometry x="3186.5299999999997" y="1305.210000000001" width="79.56" height="26.5" as="geometry" />
        </mxCell>
        <mxCell id="2QL2H94MOp4iqxCznGAc-125" style="edgeStyle=orthogonalEdgeStyle;rounded=0;orthogonalLoop=1;jettySize=auto;html=1;entryX=0.5;entryY=0;entryDx=0;entryDy=0;exitX=0;exitY=0.5;exitDx=0;exitDy=0;" edge="1" parent="1" source="2QL2H94MOp4iqxCznGAc-126" target="2QL2H94MOp4iqxCznGAc-135">
          <mxGeometry relative="1" as="geometry">
            <mxPoint x="3732.5818181818177" y="1354.2200000000012" as="sourcePoint" />
          </mxGeometry>
        </mxCell>
        <mxCell id="2QL2H94MOp4iqxCznGAc-126" value="覆盖 mem、cgroup cpu、&lt;br&gt;&amp;nbsp;cpuset cgroup 配置" style="rounded=0;whiteSpace=wrap;html=1;fillColor=none;" vertex="1" parent="1">
          <mxGeometry x="3642.62" y="1327.3500000000022" width="147.89" height="33" as="geometry" />
        </mxCell>
        <mxCell id="2QL2H94MOp4iqxCznGAc-127" style="edgeStyle=orthogonalEdgeStyle;rounded=0;orthogonalLoop=1;jettySize=auto;html=1;entryX=0.5;entryY=0;entryDx=0;entryDy=0;strokeColor=#000000;" edge="1" parent="1" source="2QL2H94MOp4iqxCznGAc-128" target="2QL2H94MOp4iqxCznGAc-126">
          <mxGeometry relative="1" as="geometry" />
        </mxCell>
        <mxCell id="2QL2H94MOp4iqxCznGAc-128" value="获取最新&lt;br&gt;CPU配置" style="rounded=0;whiteSpace=wrap;html=1;fillColor=none;" vertex="1" parent="1">
          <mxGeometry x="3670.38" y="1270.220000000002" width="92.38" height="35.25" as="geometry" />
        </mxCell>
        <mxCell id="2QL2H94MOp4iqxCznGAc-129" style="edgeStyle=orthogonalEdgeStyle;rounded=0;orthogonalLoop=1;jettySize=auto;html=1;entryX=0.5;entryY=0;entryDx=0;entryDy=0;" edge="1" parent="1" source="2QL2H94MOp4iqxCznGAc-131" target="2QL2H94MOp4iqxCznGAc-128">
          <mxGeometry relative="1" as="geometry">
            <mxPoint x="3732.8099999999977" y="1265.2200000000012" as="targetPoint" />
          </mxGeometry>
        </mxCell>
        <mxCell id="2QL2H94MOp4iqxCznGAc-130" style="edgeStyle=orthogonalEdgeStyle;rounded=0;orthogonalLoop=1;jettySize=auto;html=1;entryX=0.5;entryY=0;entryDx=0;entryDy=0;" edge="1" parent="1" source="2QL2H94MOp4iqxCznGAc-131" target="2QL2H94MOp4iqxCznGAc-135">
          <mxGeometry relative="1" as="geometry" />
        </mxCell>
        <mxCell id="2QL2H94MOp4iqxCznGAc-131" value="配置是否改变" style="rounded=0;whiteSpace=wrap;html=1;fillColor=none;" vertex="1" parent="1">
          <mxGeometry x="3542.62" y="1230.2200000000012" width="100" height="30" as="geometry" />
        </mxCell>
        <mxCell id="2QL2H94MOp4iqxCznGAc-132" style="edgeStyle=orthogonalEdgeStyle;rounded=0;orthogonalLoop=1;jettySize=auto;html=1;entryX=0;entryY=0.5;entryDx=0;entryDy=0;exitX=0;exitY=0.5;exitDx=0;exitDy=0;" edge="1" parent="1" source="2QL2H94MOp4iqxCznGAc-135" target="2QL2H94MOp4iqxCznGAc-131">
          <mxGeometry relative="1" as="geometry" />
        </mxCell>
        <mxCell id="2QL2H94MOp4iqxCznGAc-133" style="edgeStyle=orthogonalEdgeStyle;rounded=0;orthogonalLoop=1;jettySize=auto;html=1;entryX=1;entryY=0.5;entryDx=0;entryDy=0;" edge="1" parent="1">
          <mxGeometry relative="1" as="geometry">
            <mxPoint x="3592.652173913043" y="1465.220000000002" as="sourcePoint" />
            <mxPoint x="3573.6899999999996" y="1620.550000000001" as="targetPoint" />
            <Array as="points">
              <mxPoint x="3593" y="1620.8100000000013" />
            </Array>
          </mxGeometry>
        </mxCell>
        <mxCell id="2QL2H94MOp4iqxCznGAc-134" value="echo pid &amp;gt; cgroup.procs" style="edgeLabel;html=1;align=center;verticalAlign=middle;resizable=0;points=[];" vertex="1" connectable="0" parent="2QL2H94MOp4iqxCznGAc-133">
          <mxGeometry x="-0.5594" relative="1" as="geometry">
            <mxPoint as="offset" />
          </mxGeometry>
        </mxCell>
        <mxCell id="2QL2H94MOp4iqxCznGAc-135" value="获取非容器进程 pid&lt;br&gt;+&lt;br&gt;根据配置限制到不同的cgroup子路径中" style="rounded=0;whiteSpace=wrap;html=1;fillColor=none;" vertex="1" parent="1">
          <mxGeometry x="3488.67" y="1395.220000000002" width="207.89" height="70" as="geometry" />
        </mxCell>
        <mxCell id="2QL2H94MOp4iqxCznGAc-136" style="edgeStyle=orthogonalEdgeStyle;rounded=0;orthogonalLoop=1;jettySize=auto;html=1;entryX=0.5;entryY=0;entryDx=0;entryDy=0;" edge="1" parent="1" source="2QL2H94MOp4iqxCznGAc-137" target="2QL2H94MOp4iqxCznGAc-141">
          <mxGeometry relative="1" as="geometry" />
        </mxCell>
        <mxCell id="2QL2H94MOp4iqxCznGAc-137" value="非容器进程绑核" style="rounded=0;whiteSpace=wrap;html=1;fillColor=none;" vertex="1" parent="1">
          <mxGeometry x="3146.31" y="1446.340000000001" width="97.38" height="30" as="geometry" />
        </mxCell>
        <mxCell id="2QL2H94MOp4iqxCznGAc-138" style="edgeStyle=orthogonalEdgeStyle;rounded=0;orthogonalLoop=1;jettySize=auto;html=1;entryX=0.5;entryY=0;entryDx=0;entryDy=0;" edge="1" parent="1" source="2QL2H94MOp4iqxCznGAc-141" target="2QL2H94MOp4iqxCznGAc-206">
          <mxGeometry relative="1" as="geometry" />
        </mxCell>
        <mxCell id="2QL2H94MOp4iqxCznGAc-139" value="限制资源" style="edgeLabel;html=1;align=center;verticalAlign=middle;resizable=0;points=[];" vertex="1" connectable="0" parent="2QL2H94MOp4iqxCznGAc-138">
          <mxGeometry x="0.43" y="3" relative="1" as="geometry">
            <mxPoint x="9" y="33" as="offset" />
          </mxGeometry>
        </mxCell>
        <mxCell id="2QL2H94MOp4iqxCznGAc-140" style="edgeStyle=orthogonalEdgeStyle;rounded=0;orthogonalLoop=1;jettySize=auto;html=1;" edge="1" parent="1" source="2QL2H94MOp4iqxCznGAc-141" target="2QL2H94MOp4iqxCznGAc-208">
          <mxGeometry relative="1" as="geometry" />
        </mxCell>
        <mxCell id="2QL2H94MOp4iqxCznGAc-141" value="对非容器进程&lt;br&gt;内存、绑核、限制核数&lt;br&gt;同步修改cgroup:mem&lt;br&gt;cpu quota 、cpu set" style="rounded=0;whiteSpace=wrap;html=1;fillColor=none;" vertex="1" parent="1">
          <mxGeometry x="3120" y="1496.1900000000014" width="150" height="60" as="geometry" />
        </mxCell>
        <mxCell id="2QL2H94MOp4iqxCznGAc-142" value="" style="endArrow=classic;startArrow=classic;html=1;rounded=0;" edge="1" parent="1">
          <mxGeometry width="50" height="50" relative="1" as="geometry">
            <mxPoint x="3587.12" y="1230.220000000002" as="sourcePoint" />
            <mxPoint x="3587.12" y="1200.220000000002" as="targetPoint" />
          </mxGeometry>
        </mxCell>
        <mxCell id="2QL2H94MOp4iqxCznGAc-143" value="check" style="text;html=1;align=center;verticalAlign=middle;resizable=0;points=[];autosize=1;strokeColor=none;fillColor=none;" vertex="1" parent="1">
          <mxGeometry x="3592.62" y="1201.2200000000012" width="50" height="20" as="geometry" />
        </mxCell>
        <mxCell id="2QL2H94MOp4iqxCznGAc-144" value="改变" style="text;html=1;align=center;verticalAlign=middle;resizable=0;points=[];autosize=1;strokeColor=none;fillColor=none;" vertex="1" parent="1">
          <mxGeometry x="3672.62" y="1219.7200000000012" width="40" height="20" as="geometry" />
        </mxCell>
        <mxCell id="2QL2H94MOp4iqxCznGAc-145" value="未变" style="text;html=1;align=center;verticalAlign=middle;resizable=0;points=[];autosize=1;strokeColor=none;fillColor=none;" vertex="1" parent="1">
          <mxGeometry x="3597.62" y="1274.2200000000012" width="40" height="20" as="geometry" />
        </mxCell>
        <mxCell id="2QL2H94MOp4iqxCznGAc-146" value="" style="endArrow=none;html=1;rounded=0;" edge="1" parent="1">
          <mxGeometry width="50" height="50" relative="1" as="geometry">
            <mxPoint x="3070.5099999999993" y="1163.0600000000031" as="sourcePoint" />
            <mxPoint x="3790.509999999999" y="1163.0600000000031" as="targetPoint" />
          </mxGeometry>
        </mxCell>
        <mxCell id="2QL2H94MOp4iqxCznGAc-147" value="是" style="text;html=1;align=center;verticalAlign=middle;resizable=0;points=[];autosize=1;strokeColor=none;fillColor=none;" vertex="1" parent="1">
          <mxGeometry x="3233.9299999999994" y="1283.710000000001" width="30" height="20" as="geometry" />
        </mxCell>
        <mxCell id="2QL2H94MOp4iqxCznGAc-148" value="Loop：&lt;br&gt;check per 5 min" style="text;html=1;align=center;verticalAlign=middle;resizable=0;points=[];autosize=1;strokeColor=none;fillColor=none;" vertex="1" parent="1">
          <mxGeometry x="3367.62" y="1314.7200000000012" width="100" height="30" as="geometry" />
        </mxCell>
        <mxCell id="2QL2H94MOp4iqxCznGAc-149" value="&lt;font style=&quot;font-size: 39px;&quot; color=&quot;#ff3333&quot;&gt;开启混部&lt;/font&gt;" style="text;html=1;align=center;verticalAlign=middle;resizable=0;points=[];autosize=1;strokeColor=none;fillColor=none;fontSize=39;" vertex="1" parent="1">
          <mxGeometry x="2554.9300000000003" y="555.6600000000017" width="170" height="50" as="geometry" />
        </mxCell>
        <mxCell id="2QL2H94MOp4iqxCznGAc-150" value="&lt;font style=&quot;font-size: 39px;&quot; color=&quot;#ff3333&quot;&gt;关闭调度&lt;/font&gt;" style="text;html=1;align=center;verticalAlign=middle;resizable=0;points=[];autosize=1;strokeColor=none;fillColor=none;fontSize=39;" vertex="1" parent="1">
          <mxGeometry x="3950" y="1225.590000000002" width="170" height="50" as="geometry" />
        </mxCell>
        <mxCell id="2QL2H94MOp4iqxCznGAc-151" value="&lt;font style=&quot;font-size: 39px;&quot; color=&quot;#ff3333&quot;&gt;关闭混部&lt;/font&gt;" style="text;html=1;align=center;verticalAlign=middle;resizable=0;points=[];autosize=1;strokeColor=none;fillColor=none;fontSize=39;" vertex="1" parent="1">
          <mxGeometry x="4246.17" y="1225.590000000002" width="170" height="50" as="geometry" />
        </mxCell>
        <mxCell id="2QL2H94MOp4iqxCznGAc-152" value="&lt;font style=&quot;font-size: 39px;&quot; color=&quot;#ff3333&quot;&gt;混部中心-&lt;/font&gt;&lt;span style=&quot;color: rgb(255, 51, 51);&quot;&gt;混部事件&lt;/span&gt;" style="text;html=1;align=center;verticalAlign=middle;resizable=0;points=[];autosize=1;strokeColor=none;fillColor=none;fontSize=39;" vertex="1" parent="1">
          <mxGeometry x="3878.14" y="460" width="350" height="60" as="geometry" />
        </mxCell>
        <mxCell id="2QL2H94MOp4iqxCznGAc-153" value="接口调用&lt;br&gt;强制触发" style="rounded=0;whiteSpace=wrap;html=1;fillColor=none;" vertex="1" parent="1">
          <mxGeometry x="4429.17" y="1294.090000000002" width="90" height="40" as="geometry" />
        </mxCell>
        <mxCell id="2QL2H94MOp4iqxCznGAc-154" value="触发关闭混部" style="text;html=1;align=center;verticalAlign=middle;resizable=0;points=[];autosize=1;strokeColor=none;fillColor=none;" vertex="1" parent="1">
          <mxGeometry x="4293.5599999999995" y="1364.590000000002" width="90" height="20" as="geometry" />
        </mxCell>
        <mxCell id="2QL2H94MOp4iqxCznGAc-155" value="" style="shape=curlyBracket;whiteSpace=wrap;html=1;rounded=1;flipH=1;size=0.5;rotation=90;" vertex="1" parent="1">
          <mxGeometry x="4333.54" y="1169.590000000002" width="20" height="360" as="geometry" />
        </mxCell>
        <mxCell id="2QL2H94MOp4iqxCznGAc-156" value="return" style="rounded=0;whiteSpace=wrap;html=1;fillColor=none;" vertex="1" parent="1">
          <mxGeometry x="4170.98" y="1559.7100000000019" width="60.67" height="30" as="geometry" />
        </mxCell>
        <mxCell id="2QL2H94MOp4iqxCznGAc-157" style="edgeStyle=orthogonalEdgeStyle;rounded=0;orthogonalLoop=1;jettySize=auto;html=1;" edge="1" parent="1" source="2QL2H94MOp4iqxCznGAc-158" target="2QL2H94MOp4iqxCznGAc-163">
          <mxGeometry relative="1" as="geometry" />
        </mxCell>
        <mxCell id="2QL2H94MOp4iqxCznGAc-158" value="恢复 online 容器绑核" style="rounded=0;whiteSpace=wrap;html=1;fillColor=none;" vertex="1" parent="1">
          <mxGeometry x="4280.21" y="1458.3500000000022" width="127.75" height="40" as="geometry" />
        </mxCell>
        <mxCell id="2QL2H94MOp4iqxCznGAc-159" style="edgeStyle=orthogonalEdgeStyle;rounded=0;orthogonalLoop=1;jettySize=auto;html=1;entryX=1;entryY=0.5;entryDx=0;entryDy=0;exitX=0;exitY=0.5;exitDx=0;exitDy=0;" edge="1" parent="1" source="2QL2H94MOp4iqxCznGAc-163" target="2QL2H94MOp4iqxCznGAc-156">
          <mxGeometry relative="1" as="geometry" />
        </mxCell>
        <mxCell id="2QL2H94MOp4iqxCznGAc-160" style="edgeStyle=orthogonalEdgeStyle;rounded=0;orthogonalLoop=1;jettySize=auto;html=1;exitX=0.75;exitY=1;exitDx=0;exitDy=0;entryX=0.5;entryY=1;entryDx=0;entryDy=0;" edge="1" parent="1" source="2QL2H94MOp4iqxCznGAc-163" target="2QL2H94MOp4iqxCznGAc-208">
          <mxGeometry relative="1" as="geometry">
            <Array as="points">
              <mxPoint x="4386" y="1712.8100000000013" />
              <mxPoint x="3195" y="1712.8100000000013" />
            </Array>
          </mxGeometry>
        </mxCell>
        <mxCell id="2QL2H94MOp4iqxCznGAc-161" value="&lt;span style=&quot;color: rgba(0, 0, 0, 0); font-family: monospace; font-size: 0px; text-align: start; background-color: rgb(248, 249, 250);&quot;&gt;%3CmxGraphModel%3E%3Croot%3E%3CmxCell%20id%3D%220%22%2F%3E%3CmxCell%20id%3D%221%22%20parent%3D%220%22%2F%3E%3CmxCell%20id%3D%222%22%20value%3D%22channel%22%20style%3D%22text%3Bhtml%3D1%3Balign%3Dcenter%3BverticalAlign%3Dmiddle%3Bresizable%3D0%3Bpoints%3D%5B%5D%3Bautosize%3D1%3BstrokeColor%3Dnone%3BfillColor%3Dnone%3B%22%20vertex%3D%221%22%20parent%3D%221%22%3E%3CmxGeometry%20x%3D%221686.7200000000003%22%20y%3D%226229.36%22%20width%3D%2270%22%20height%3D%2230%22%20as%3D%22geometry%22%2F%3E%3C%2FmxCell%3E%3C%2Froot%3E%3C%2FmxGraphModel%3Ech&lt;/span&gt;" style="edgeLabel;html=1;align=center;verticalAlign=middle;resizable=0;points=[];" vertex="1" connectable="0" parent="2QL2H94MOp4iqxCznGAc-160">
          <mxGeometry x="-0.5584" y="1" relative="1" as="geometry">
            <mxPoint as="offset" />
          </mxGeometry>
        </mxCell>
        <mxCell id="2QL2H94MOp4iqxCznGAc-162" value="channel" style="edgeLabel;html=1;align=center;verticalAlign=middle;resizable=0;points=[];" vertex="1" connectable="0" parent="2QL2H94MOp4iqxCznGAc-160">
          <mxGeometry x="-0.5549" y="4" relative="1" as="geometry">
            <mxPoint x="-397" y="-2" as="offset" />
          </mxGeometry>
        </mxCell>
        <mxCell id="2QL2H94MOp4iqxCznGAc-163" value="恢复 offline 容器绑核及缩容&lt;br&gt;+&lt;br&gt;kill yarn job&lt;br&gt;+&lt;br&gt;·解除Agent绑核" style="rounded=0;whiteSpace=wrap;html=1;fillColor=none;" vertex="1" parent="1">
          <mxGeometry x="4258.97" y="1532.090000000002" width="169.13" height="85.24" as="geometry" />
        </mxCell>
        <mxCell id="2QL2H94MOp4iqxCznGAc-164" value="关闭混部记录接口" style="rounded=0;whiteSpace=wrap;html=1;fillColor=#ffcd28;strokeColor=#d79b00;align=center;gradientColor=#ffa500;" vertex="1" parent="1">
          <mxGeometry x="4428.1" y="1532.090000000001" width="120.5" height="38.12" as="geometry" />
        </mxCell>
        <mxCell id="2QL2H94MOp4iqxCznGAc-165" value="&lt;font color=&quot;#ff3333&quot;&gt;干扰检测&lt;/font&gt;" style="text;html=1;align=center;verticalAlign=middle;resizable=0;points=[];autosize=1;strokeColor=none;fillColor=none;fontSize=39;" vertex="1" parent="1">
          <mxGeometry x="821.9099999999999" y="862.6800000000012" width="170" height="50" as="geometry" />
        </mxCell>
        <mxCell id="2QL2H94MOp4iqxCznGAc-166" value="&lt;font color=&quot;#ff3333&quot;&gt;监控模块&lt;/font&gt;" style="text;html=1;align=center;verticalAlign=middle;resizable=0;points=[];autosize=1;strokeColor=none;fillColor=none;fontSize=39;" vertex="1" parent="1">
          <mxGeometry x="574.31" y="863.6800000000012" width="170" height="50" as="geometry" />
        </mxCell>
        <mxCell id="2QL2H94MOp4iqxCznGAc-167" style="edgeStyle=orthogonalEdgeStyle;rounded=0;orthogonalLoop=1;jettySize=auto;html=1;entryX=0;entryY=0.5;entryDx=0;entryDy=0;" edge="1" parent="1" source="2QL2H94MOp4iqxCznGAc-170" target="2QL2H94MOp4iqxCznGAc-172">
          <mxGeometry relative="1" as="geometry" />
        </mxCell>
        <mxCell id="2QL2H94MOp4iqxCznGAc-168" style="edgeStyle=orthogonalEdgeStyle;rounded=0;orthogonalLoop=1;jettySize=auto;html=1;entryX=0.5;entryY=1;entryDx=0;entryDy=0;" edge="1" parent="1" source="2QL2H94MOp4iqxCznGAc-170" target="2QL2H94MOp4iqxCznGAc-206">
          <mxGeometry relative="1" as="geometry">
            <Array as="points">
              <mxPoint x="659" y="1762.8100000000013" />
              <mxPoint x="3464" y="1762.8100000000013" />
            </Array>
          </mxGeometry>
        </mxCell>
        <mxCell id="2QL2H94MOp4iqxCznGAc-169" value="CPU使用率告警&lt;br&gt;MEM使用量告警&lt;br&gt;OOM告警" style="edgeLabel;html=1;align=center;verticalAlign=middle;resizable=0;points=[];" vertex="1" connectable="0" parent="2QL2H94MOp4iqxCznGAc-168">
          <mxGeometry x="0.8778" y="2" relative="1" as="geometry">
            <mxPoint as="offset" />
          </mxGeometry>
        </mxCell>
        <mxCell id="2QL2H94MOp4iqxCznGAc-170" value="监控数据推送&lt;br&gt;per 1s" style="rounded=0;whiteSpace=wrap;html=1;fillColor=none;" vertex="1" parent="1">
          <mxGeometry x="601.1299999999999" y="918.5600000000013" width="116.37" height="70" as="geometry" />
        </mxCell>
        <mxCell id="2QL2H94MOp4iqxCznGAc-171" style="edgeStyle=orthogonalEdgeStyle;rounded=0;orthogonalLoop=1;jettySize=auto;html=1;entryX=0.5;entryY=0;entryDx=0;entryDy=0;" edge="1" parent="1" source="2QL2H94MOp4iqxCznGAc-172" target="2QL2H94MOp4iqxCznGAc-174">
          <mxGeometry relative="1" as="geometry" />
        </mxCell>
        <mxCell id="2QL2H94MOp4iqxCznGAc-172" value="接收监控数据" style="rounded=0;whiteSpace=wrap;html=1;fillColor=none;" vertex="1" parent="1">
          <mxGeometry x="859.4099999999999" y="933.5600000000013" width="100" height="40" as="geometry" />
        </mxCell>
        <mxCell id="2QL2H94MOp4iqxCznGAc-173" style="edgeStyle=orthogonalEdgeStyle;rounded=0;orthogonalLoop=1;jettySize=auto;html=1;entryX=0.5;entryY=0;entryDx=0;entryDy=0;" edge="1" parent="1" source="2QL2H94MOp4iqxCznGAc-174" target="2QL2H94MOp4iqxCznGAc-175">
          <mxGeometry relative="1" as="geometry" />
        </mxCell>
        <mxCell id="2QL2H94MOp4iqxCznGAc-174" value="对每秒推送的数据&lt;br&gt;作干扰指标检测" style="rounded=0;whiteSpace=wrap;html=1;fillColor=none;" vertex="1" parent="1">
          <mxGeometry x="850.3899999999999" y="1003.5600000000013" width="119.52" height="60" as="geometry" />
        </mxCell>
        <mxCell id="2QL2H94MOp4iqxCznGAc-175" value="判断当前数据是否异常" style="rounded=0;whiteSpace=wrap;html=1;fillColor=none;" vertex="1" parent="1">
          <mxGeometry x="869.1599999999999" y="1083.5600000000013" width="80.5" height="30" as="geometry" />
        </mxCell>
        <mxCell id="2QL2H94MOp4iqxCznGAc-176" value="return" style="rounded=0;whiteSpace=wrap;html=1;fillColor=none;" vertex="1" parent="1">
          <mxGeometry x="790.4099999999999" y="1188.0600000000013" width="69" height="30" as="geometry" />
        </mxCell>
        <mxCell id="2QL2H94MOp4iqxCznGAc-177" style="edgeStyle=orthogonalEdgeStyle;rounded=0;orthogonalLoop=1;jettySize=auto;html=1;" edge="1" parent="1" source="2QL2H94MOp4iqxCznGAc-178" target="2QL2H94MOp4iqxCznGAc-176">
          <mxGeometry relative="1" as="geometry" />
        </mxCell>
        <mxCell id="2QL2H94MOp4iqxCznGAc-178" value="正常" style="text;html=1;align=center;verticalAlign=middle;resizable=0;points=[];autosize=1;strokeColor=none;fillColor=none;" vertex="1" parent="1">
          <mxGeometry x="804.6599999999999" y="1113.0600000000013" width="40" height="20" as="geometry" />
        </mxCell>
        <mxCell id="2QL2H94MOp4iqxCznGAc-179" style="edgeStyle=orthogonalEdgeStyle;rounded=0;orthogonalLoop=1;jettySize=auto;html=1;entryX=0.5;entryY=0;entryDx=0;entryDy=0;" edge="1" parent="1" source="2QL2H94MOp4iqxCznGAc-180" target="2QL2H94MOp4iqxCznGAc-182">
          <mxGeometry relative="1" as="geometry" />
        </mxCell>
        <mxCell id="2QL2H94MOp4iqxCznGAc-180" value="异常" style="text;html=1;align=center;verticalAlign=middle;resizable=0;points=[];autosize=1;strokeColor=none;fillColor=none;" vertex="1" parent="1">
          <mxGeometry x="983.1599999999999" y="1113.5600000000013" width="40" height="20" as="geometry" />
        </mxCell>
        <mxCell id="2QL2H94MOp4iqxCznGAc-181" style="edgeStyle=orthogonalEdgeStyle;rounded=0;orthogonalLoop=1;jettySize=auto;html=1;entryX=0.5;entryY=0;entryDx=0;entryDy=0;" edge="1" parent="1" source="2QL2H94MOp4iqxCznGAc-182" target="2QL2H94MOp4iqxCznGAc-185">
          <mxGeometry relative="1" as="geometry" />
        </mxCell>
        <mxCell id="2QL2H94MOp4iqxCznGAc-182" value="按最大规则窗口&lt;br&gt;从循环队列中取数据" style="rounded=0;whiteSpace=wrap;html=1;fillColor=none;" vertex="1" parent="1">
          <mxGeometry x="939.4099999999999" y="1158.5600000000013" width="127.5" height="53" as="geometry" />
        </mxCell>
        <mxCell id="2QL2H94MOp4iqxCznGAc-183" style="edgeStyle=orthogonalEdgeStyle;rounded=0;orthogonalLoop=1;jettySize=auto;html=1;" edge="1" parent="1" source="2QL2H94MOp4iqxCznGAc-185" target="2QL2H94MOp4iqxCznGAc-187">
          <mxGeometry relative="1" as="geometry" />
        </mxCell>
        <mxCell id="2QL2H94MOp4iqxCznGAc-184" style="edgeStyle=orthogonalEdgeStyle;rounded=0;orthogonalLoop=1;jettySize=auto;html=1;entryX=0;entryY=0.525;entryDx=0;entryDy=0;entryPerimeter=0;" edge="1" parent="1" source="2QL2H94MOp4iqxCznGAc-185" target="2QL2H94MOp4iqxCznGAc-189">
          <mxGeometry relative="1" as="geometry" />
        </mxCell>
        <mxCell id="2QL2H94MOp4iqxCznGAc-185" value="累计各个规则窗口的异常点与对应规则作比" style="rounded=0;whiteSpace=wrap;html=1;fillColor=none;" vertex="1" parent="1">
          <mxGeometry x="939.4099999999999" y="1257.0600000000013" width="127.5" height="53" as="geometry" />
        </mxCell>
        <mxCell id="2QL2H94MOp4iqxCznGAc-186" style="edgeStyle=orthogonalEdgeStyle;rounded=0;orthogonalLoop=1;jettySize=auto;html=1;entryX=0.5;entryY=1;entryDx=0;entryDy=0;exitX=0.5;exitY=0;exitDx=0;exitDy=0;exitPerimeter=0;" edge="1" parent="1" source="2QL2H94MOp4iqxCznGAc-187" target="2QL2H94MOp4iqxCznGAc-176">
          <mxGeometry relative="1" as="geometry" />
        </mxCell>
        <mxCell id="2QL2H94MOp4iqxCznGAc-187" value="未达到干扰检测标准" style="text;html=1;align=center;verticalAlign=middle;resizable=0;points=[];autosize=1;strokeColor=none;fillColor=none;" vertex="1" parent="1">
          <mxGeometry x="764.9099999999999" y="1273.0600000000013" width="120" height="20" as="geometry" />
        </mxCell>
        <mxCell id="2QL2H94MOp4iqxCznGAc-188" style="edgeStyle=orthogonalEdgeStyle;rounded=0;orthogonalLoop=1;jettySize=auto;html=1;entryX=0.409;entryY=0.502;entryDx=0;entryDy=0;entryPerimeter=0;strokeColor=#000000;" edge="1" parent="1" source="2QL2H94MOp4iqxCznGAc-189" target="2QL2H94MOp4iqxCznGAc-246">
          <mxGeometry relative="1" as="geometry" />
        </mxCell>
        <mxCell id="2QL2H94MOp4iqxCznGAc-189" value="触发干扰标准" style="text;html=1;align=center;verticalAlign=middle;resizable=0;points=[];autosize=1;strokeColor=none;fillColor=none;" vertex="1" parent="1">
          <mxGeometry x="1106.81" y="1273.0600000000013" width="90" height="20" as="geometry" />
        </mxCell>
        <mxCell id="2QL2H94MOp4iqxCznGAc-190" style="edgeStyle=orthogonalEdgeStyle;rounded=0;orthogonalLoop=1;jettySize=auto;html=1;" edge="1" parent="1" source="2QL2H94MOp4iqxCznGAc-192" target="2QL2H94MOp4iqxCznGAc-195">
          <mxGeometry relative="1" as="geometry" />
        </mxCell>
        <mxCell id="2QL2H94MOp4iqxCznGAc-191" style="edgeStyle=orthogonalEdgeStyle;rounded=0;orthogonalLoop=1;jettySize=auto;html=1;entryX=0;entryY=0.5;entryDx=0;entryDy=0;exitX=0;exitY=0.5;exitDx=0;exitDy=0;" edge="1" parent="1" source="2QL2H94MOp4iqxCznGAc-192" target="2QL2H94MOp4iqxCznGAc-25">
          <mxGeometry relative="1" as="geometry">
            <Array as="points">
              <mxPoint x="1840" y="649.8100000000013" />
              <mxPoint x="1840" y="552.8100000000013" />
            </Array>
          </mxGeometry>
        </mxCell>
        <mxCell id="2QL2H94MOp4iqxCznGAc-192" value="当前是否&lt;br&gt;发生压制" style="rhombus;whiteSpace=wrap;html=1;fillColor=none;" vertex="1" parent="1">
          <mxGeometry x="1892.6000000000001" y="623.6100000000033" width="104" height="52" as="geometry" />
        </mxCell>
        <mxCell id="2QL2H94MOp4iqxCznGAc-193" style="edgeStyle=orthogonalEdgeStyle;rounded=0;orthogonalLoop=1;jettySize=auto;html=1;entryX=0.5;entryY=0;entryDx=0;entryDy=0;" edge="1" parent="1" source="2QL2H94MOp4iqxCznGAc-195" target="2QL2H94MOp4iqxCznGAc-200">
          <mxGeometry relative="1" as="geometry">
            <mxPoint x="1944.6000000000001" y="817.8700000000017" as="targetPoint" />
          </mxGeometry>
        </mxCell>
        <mxCell id="2QL2H94MOp4iqxCznGAc-194" style="edgeStyle=orthogonalEdgeStyle;rounded=0;orthogonalLoop=1;jettySize=auto;html=1;entryX=0;entryY=0.5;entryDx=0;entryDy=0;exitX=0;exitY=0.5;exitDx=0;exitDy=0;" edge="1" parent="1" source="2QL2H94MOp4iqxCznGAc-195" target="2QL2H94MOp4iqxCznGAc-25">
          <mxGeometry relative="1" as="geometry">
            <Array as="points">
              <mxPoint x="1840" y="746.8100000000013" />
              <mxPoint x="1840" y="552.8100000000013" />
            </Array>
          </mxGeometry>
        </mxCell>
        <mxCell id="2QL2H94MOp4iqxCznGAc-195" value="在线容器_CPU&lt;br&gt;Agent_CPU&lt;br&gt;指标是否正常" style="rhombus;whiteSpace=wrap;html=1;fillColor=none;" vertex="1" parent="1">
          <mxGeometry x="1863.97" y="706.8500000000031" width="161.26" height="80.28" as="geometry" />
        </mxCell>
        <mxCell id="2QL2H94MOp4iqxCznGAc-196" value="否" style="text;html=1;align=center;verticalAlign=middle;resizable=0;points=[];autosize=1;strokeColor=none;fillColor=none;" vertex="1" parent="1">
          <mxGeometry x="1862.1200000000001" y="609.5900000000029" width="40" height="30" as="geometry" />
        </mxCell>
        <mxCell id="2QL2H94MOp4iqxCznGAc-197" value="是" style="text;html=1;align=center;verticalAlign=middle;resizable=0;points=[];autosize=1;strokeColor=none;fillColor=none;" vertex="1" parent="1">
          <mxGeometry x="1902.1200000000001" y="669.5900000000029" width="40" height="30" as="geometry" />
        </mxCell>
        <mxCell id="2QL2H94MOp4iqxCznGAc-198" value="否" style="text;html=1;align=center;verticalAlign=middle;resizable=0;points=[];autosize=1;strokeColor=none;fillColor=none;" vertex="1" parent="1">
          <mxGeometry x="1852.1200000000001" y="708.5300000000025" width="40" height="30" as="geometry" />
        </mxCell>
        <mxCell id="2QL2H94MOp4iqxCznGAc-199" style="edgeStyle=orthogonalEdgeStyle;rounded=0;orthogonalLoop=1;jettySize=auto;html=1;strokeColor=#000000;entryX=0.5;entryY=0;entryDx=0;entryDy=0;exitX=0.5;exitY=1;exitDx=0;exitDy=0;" edge="1" parent="1" source="2QL2H94MOp4iqxCznGAc-200" target="2QL2H94MOp4iqxCznGAc-240">
          <mxGeometry relative="1" as="geometry">
            <mxPoint x="712.71" y="831.2300000000014" as="targetPoint" />
            <Array as="points">
              <mxPoint x="1945" y="876.8100000000013" />
              <mxPoint x="1324" y="876.8100000000013" />
            </Array>
          </mxGeometry>
        </mxCell>
        <mxCell id="2QL2H94MOp4iqxCznGAc-200" value="压制恢复流程（还核）" style="rounded=0;whiteSpace=wrap;html=1;fillColor=none;" vertex="1" parent="1">
          <mxGeometry x="1873.72" y="814.7900000000018" width="141.47" height="44.68" as="geometry" />
        </mxCell>
        <mxCell id="2QL2H94MOp4iqxCznGAc-201" value="是" style="text;html=1;align=center;verticalAlign=middle;resizable=0;points=[];autosize=1;strokeColor=none;fillColor=none;" vertex="1" parent="1">
          <mxGeometry x="4343.35" y="1428.3500000000022" width="40" height="30" as="geometry" />
        </mxCell>
        <mxCell id="2QL2H94MOp4iqxCznGAc-202" value="否" style="text;html=1;align=center;verticalAlign=middle;resizable=0;points=[];autosize=1;strokeColor=none;fillColor=none;" vertex="1" parent="1">
          <mxGeometry x="4231.65" y="1383.590000000002" width="40" height="30" as="geometry" />
        </mxCell>
        <mxCell id="2QL2H94MOp4iqxCznGAc-203" style="edgeStyle=orthogonalEdgeStyle;rounded=0;orthogonalLoop=1;jettySize=auto;html=1;" edge="1" parent="1" source="2QL2H94MOp4iqxCznGAc-205" target="2QL2H94MOp4iqxCznGAc-158">
          <mxGeometry relative="1" as="geometry" />
        </mxCell>
        <mxCell id="2QL2H94MOp4iqxCznGAc-204" style="edgeStyle=orthogonalEdgeStyle;rounded=0;orthogonalLoop=1;jettySize=auto;html=1;entryX=0;entryY=0.5;entryDx=0;entryDy=0;exitX=0;exitY=0.5;exitDx=0;exitDy=0;" edge="1" parent="1" source="2QL2H94MOp4iqxCznGAc-205" target="2QL2H94MOp4iqxCznGAc-156">
          <mxGeometry relative="1" as="geometry">
            <Array as="points">
              <mxPoint x="4150" y="1411.8100000000013" />
              <mxPoint x="4150" y="1574.8100000000013" />
            </Array>
          </mxGeometry>
        </mxCell>
        <mxCell id="2QL2H94MOp4iqxCznGAc-205" value="当前是否处于混部状态" style="rhombus;whiteSpace=wrap;html=1;fillColor=none;" vertex="1" parent="1">
          <mxGeometry x="4263.45" y="1387.470000000002" width="161.26" height="49" as="geometry" />
        </mxCell>
        <mxCell id="2QL2H94MOp4iqxCznGAc-206" value="&lt;span style=&quot;&quot;&gt;/sys/fs/cgroup/cpu/agentAndDaemon&lt;/span&gt;" style="rounded=0;whiteSpace=wrap;html=1;fillColor=#f5f5f5;fontColor=#333333;strokeColor=#666666;" vertex="1" parent="1">
          <mxGeometry x="3353.6899999999996" y="1600.550000000001" width="220" height="40" as="geometry" />
        </mxCell>
        <mxCell id="2QL2H94MOp4iqxCznGAc-207" value="调整资源" style="edgeStyle=orthogonalEdgeStyle;rounded=0;orthogonalLoop=1;jettySize=auto;html=1;entryX=0;entryY=0.5;entryDx=0;entryDy=0;" edge="1" parent="1" source="2QL2H94MOp4iqxCznGAc-208" target="2QL2H94MOp4iqxCznGAc-206">
          <mxGeometry relative="1" as="geometry" />
        </mxCell>
        <mxCell id="2QL2H94MOp4iqxCznGAc-208" value="goroutine：&lt;br&gt;&lt;span style=&quot;&quot;&gt;关闭混部时，解除绑核状态，调整核数配置&lt;/span&gt;" style="rounded=0;whiteSpace=wrap;html=1;fillColor=none;" vertex="1" parent="1">
          <mxGeometry x="3120" y="1590.550000000001" width="150" height="60" as="geometry" />
        </mxCell>
        <mxCell id="2QL2H94MOp4iqxCznGAc-209" value="关闭混部" style="rounded=0;whiteSpace=wrap;html=1;align=center;" vertex="1" parent="1">
          <mxGeometry x="3992.89" y="885.9000000000015" width="120.5" height="38.12" as="geometry" />
        </mxCell>
        <mxCell id="2QL2H94MOp4iqxCznGAc-210" value="开启混部" style="rounded=0;whiteSpace=wrap;html=1;fillColor=#cdeb8b;align=center;strokeColor=#36393d;" vertex="1" parent="1">
          <mxGeometry x="3992.89" y="830.5300000000007" width="120.5" height="38.12" as="geometry" />
        </mxCell>
        <mxCell id="2QL2H94MOp4iqxCznGAc-211" value="关闭调度" style="rounded=0;whiteSpace=wrap;html=1;fillColor=#f9f7ed;align=center;strokeColor=#36393d;" vertex="1" parent="1">
          <mxGeometry x="3992.89" y="942.5400000000018" width="120.5" height="38.12" as="geometry" />
        </mxCell>
        <mxCell id="2QL2H94MOp4iqxCznGAc-212" value="恢复调度" style="rounded=0;whiteSpace=wrap;html=1;fillColor=#ffcc99;align=center;strokeColor=#36393d;" vertex="1" parent="1">
          <mxGeometry x="3992.89" y="998.9200000000019" width="120.5" height="38.12" as="geometry" />
        </mxCell>
        <mxCell id="2QL2H94MOp4iqxCznGAc-213" value="开启超分" style="rounded=0;whiteSpace=wrap;html=1;fillColor=#cce5ff;align=center;strokeColor=#36393d;" vertex="1" parent="1">
          <mxGeometry x="3992.89" y="1055.0400000000018" width="120.5" height="38.12" as="geometry" />
        </mxCell>
        <mxCell id="2QL2H94MOp4iqxCznGAc-214" value="关闭超分" style="rounded=0;whiteSpace=wrap;html=1;fillColor=#ffff88;align=center;strokeColor=#36393d;" vertex="1" parent="1">
          <mxGeometry x="3992.89" y="1114.6000000000013" width="120.5" height="38.12" as="geometry" />
        </mxCell>
        <mxCell id="2QL2H94MOp4iqxCznGAc-215" value="nodeManager" style="rounded=0;whiteSpace=wrap;html=1;fillColor=none;" vertex="1" parent="1">
          <mxGeometry x="1921.04" y="1579.9700000000012" width="97" height="50" as="geometry" />
        </mxCell>
        <mxCell id="2QL2H94MOp4iqxCznGAc-216" style="edgeStyle=orthogonalEdgeStyle;rounded=0;orthogonalLoop=1;jettySize=auto;html=1;strokeColor=#000000;" edge="1" parent="1" source="2QL2H94MOp4iqxCznGAc-218" target="2QL2H94MOp4iqxCznGAc-221">
          <mxGeometry relative="1" as="geometry" />
        </mxCell>
        <mxCell id="2QL2H94MOp4iqxCznGAc-217" style="edgeStyle=orthogonalEdgeStyle;rounded=0;orthogonalLoop=1;jettySize=auto;html=1;entryX=1;entryY=0.5;entryDx=0;entryDy=0;strokeColor=#000000;exitX=1;exitY=0.5;exitDx=0;exitDy=0;" edge="1" parent="1" source="2QL2H94MOp4iqxCznGAc-218" target="2QL2H94MOp4iqxCznGAc-234">
          <mxGeometry relative="1" as="geometry" />
        </mxCell>
        <mxCell id="2QL2H94MOp4iqxCznGAc-218" value="离线容器是否处于&lt;br&gt;过载状态" style="rhombus;whiteSpace=wrap;html=1;fillColor=none;" vertex="1" parent="1">
          <mxGeometry x="1530.3" y="587.1100000000015" width="161.26" height="69.5" as="geometry" />
        </mxCell>
        <mxCell id="2QL2H94MOp4iqxCznGAc-219" style="edgeStyle=orthogonalEdgeStyle;rounded=0;orthogonalLoop=1;jettySize=auto;html=1;strokeColor=#000000;" edge="1" parent="1" source="2QL2H94MOp4iqxCznGAc-221" target="2QL2H94MOp4iqxCznGAc-225">
          <mxGeometry relative="1" as="geometry" />
        </mxCell>
        <mxCell id="2QL2H94MOp4iqxCznGAc-220" style="edgeStyle=orthogonalEdgeStyle;rounded=0;orthogonalLoop=1;jettySize=auto;html=1;strokeColor=#000000;entryX=1;entryY=0.5;entryDx=0;entryDy=0;exitX=1;exitY=0.5;exitDx=0;exitDy=0;" edge="1" parent="1" source="2QL2H94MOp4iqxCznGAc-221" target="2QL2H94MOp4iqxCznGAc-234">
          <mxGeometry relative="1" as="geometry">
            <mxPoint x="1513.51" y="550.5500000000011" as="targetPoint" />
          </mxGeometry>
        </mxCell>
        <mxCell id="2QL2H94MOp4iqxCznGAc-221" value="过载状态是否恢复" style="rhombus;whiteSpace=wrap;html=1;fillColor=none;" vertex="1" parent="1">
          <mxGeometry x="1530.3" y="682.170000000001" width="161.26" height="40" as="geometry" />
        </mxCell>
        <mxCell id="2QL2H94MOp4iqxCznGAc-222" style="edgeStyle=orthogonalEdgeStyle;rounded=0;orthogonalLoop=1;jettySize=auto;html=1;entryX=0.5;entryY=0;entryDx=0;entryDy=0;strokeColor=#000000;" edge="1" parent="1" source="2QL2H94MOp4iqxCznGAc-225" target="2QL2H94MOp4iqxCznGAc-229">
          <mxGeometry relative="1" as="geometry" />
        </mxCell>
        <mxCell id="2QL2H94MOp4iqxCznGAc-223" style="edgeStyle=orthogonalEdgeStyle;rounded=0;orthogonalLoop=1;jettySize=auto;html=1;entryX=1;entryY=0.5;entryDx=0;entryDy=0;strokeColor=#000000;exitX=1;exitY=0.5;exitDx=0;exitDy=0;" edge="1" parent="1" source="2QL2H94MOp4iqxCznGAc-225" target="2QL2H94MOp4iqxCznGAc-234">
          <mxGeometry relative="1" as="geometry" />
        </mxCell>
        <mxCell id="2QL2H94MOp4iqxCznGAc-224" style="edgeStyle=orthogonalEdgeStyle;rounded=0;orthogonalLoop=1;jettySize=auto;html=1;strokeColor=#000000;entryX=1;entryY=0.5;entryDx=0;entryDy=0;" edge="1" parent="1" source="2QL2H94MOp4iqxCznGAc-225" target="2QL2H94MOp4iqxCznGAc-226">
          <mxGeometry relative="1" as="geometry">
            <mxPoint x="1713.96" y="759.6100000000006" as="targetPoint" />
          </mxGeometry>
        </mxCell>
        <mxCell id="2QL2H94MOp4iqxCznGAc-225" value="调度是否关闭" style="rhombus;whiteSpace=wrap;html=1;fillColor=none;" vertex="1" parent="1">
          <mxGeometry x="1530.3" y="752.1000000000004" width="161.26" height="40" as="geometry" />
        </mxCell>
        <mxCell id="2QL2H94MOp4iqxCznGAc-226" value="恢复调度" style="rounded=0;whiteSpace=wrap;html=1;fillColor=#ffcc99;align=center;strokeColor=#36393d;" vertex="1" parent="1">
          <mxGeometry x="1364.3099999999997" y="753.100000000004" width="120.5" height="38.12" as="geometry" />
        </mxCell>
        <mxCell id="2QL2H94MOp4iqxCznGAc-227" style="edgeStyle=orthogonalEdgeStyle;rounded=0;orthogonalLoop=1;jettySize=auto;html=1;strokeColor=#000000;entryX=1;entryY=0.5;entryDx=0;entryDy=0;exitX=1;exitY=0.5;exitDx=0;exitDy=0;" edge="1" parent="1" source="2QL2H94MOp4iqxCznGAc-229" target="2QL2H94MOp4iqxCznGAc-234">
          <mxGeometry relative="1" as="geometry">
            <mxPoint x="1441.62" y="780.5500000000011" as="targetPoint" />
          </mxGeometry>
        </mxCell>
        <mxCell id="2QL2H94MOp4iqxCznGAc-228" value="" style="edgeStyle=orthogonalEdgeStyle;rounded=0;orthogonalLoop=1;jettySize=auto;html=1;strokeColor=#000000;entryX=1;entryY=0.5;entryDx=0;entryDy=0;" edge="1" parent="1" source="2QL2H94MOp4iqxCznGAc-229" target="2QL2H94MOp4iqxCznGAc-232">
          <mxGeometry relative="1" as="geometry">
            <mxPoint x="1735.5700000000002" y="848.3100000000013" as="targetPoint" />
          </mxGeometry>
        </mxCell>
        <mxCell id="2QL2H94MOp4iqxCznGAc-229" value="core &amp;gt; 15 &amp;amp;&amp;amp;&lt;br&gt;core &amp;gt;= vcore" style="rhombus;whiteSpace=wrap;html=1;fillColor=none;" vertex="1" parent="1">
          <mxGeometry x="1530.3000000000002" y="815.6800000000012" width="161.26" height="47" as="geometry" />
        </mxCell>
        <mxCell id="2QL2H94MOp4iqxCznGAc-230" style="edgeStyle=orthogonalEdgeStyle;rounded=0;orthogonalLoop=1;jettySize=auto;html=1;entryX=0;entryY=0.5;entryDx=0;entryDy=0;exitX=0;exitY=0.5;exitDx=0;exitDy=0;" edge="1" parent="1" source="2QL2H94MOp4iqxCznGAc-232" target="2QL2H94MOp4iqxCznGAc-215">
          <mxGeometry relative="1" as="geometry">
            <mxPoint x="1896.29" y="1619.6100000000024" as="targetPoint" />
            <Array as="points">
              <mxPoint x="550" y="838.8100000000013" />
              <mxPoint x="550" y="1604.8100000000013" />
            </Array>
          </mxGeometry>
        </mxCell>
        <mxCell id="2QL2H94MOp4iqxCznGAc-231" value="超分&lt;br&gt;vcore / core = 4 / 3&amp;nbsp;" style="edgeLabel;html=1;align=center;verticalAlign=middle;resizable=0;points=[];" vertex="1" connectable="0" parent="2QL2H94MOp4iqxCznGAc-230">
          <mxGeometry x="0.877" y="5" relative="1" as="geometry">
            <mxPoint as="offset" />
          </mxGeometry>
        </mxCell>
        <mxCell id="2QL2H94MOp4iqxCznGAc-232" value="开启超分" style="rounded=0;whiteSpace=wrap;html=1;fillColor=#cce5ff;align=center;strokeColor=#36393d;" vertex="1" parent="1">
          <mxGeometry x="1364.3099999999997" y="820.550000000002" width="120.5" height="38.12" as="geometry" />
        </mxCell>
        <mxCell id="2QL2H94MOp4iqxCznGAc-233" style="edgeStyle=orthogonalEdgeStyle;rounded=0;orthogonalLoop=1;jettySize=auto;html=1;entryX=0.5;entryY=0;entryDx=0;entryDy=0;strokeColor=#000000;" edge="1" parent="1" source="2QL2H94MOp4iqxCznGAc-234" target="2QL2H94MOp4iqxCznGAc-218">
          <mxGeometry relative="1" as="geometry" />
        </mxCell>
        <mxCell id="2QL2H94MOp4iqxCznGAc-234" value="&lt;span style=&quot;&quot;&gt;loop&amp;nbsp; per 1min&lt;/span&gt;" style="rounded=0;whiteSpace=wrap;html=1;fillColor=none;" vertex="1" parent="1">
          <mxGeometry x="1564.3100000000002" y="531.590000000001" width="93.24" height="30" as="geometry" />
        </mxCell>
        <mxCell id="2QL2H94MOp4iqxCznGAc-235" style="edgeStyle=orthogonalEdgeStyle;rounded=0;orthogonalLoop=1;jettySize=auto;html=1;entryX=0;entryY=0.5;entryDx=0;entryDy=0;strokeColor=#000000;" edge="1" parent="1" source="2QL2H94MOp4iqxCznGAc-236" target="2QL2H94MOp4iqxCznGAc-249">
          <mxGeometry relative="1" as="geometry" />
        </mxCell>
        <mxCell id="2QL2H94MOp4iqxCznGAc-236" value="仅压制" style="rounded=0;whiteSpace=wrap;html=1;fillColor=none;" vertex="1" parent="1">
          <mxGeometry x="1284.31" y="1125.4300000000012" width="80.5" height="38.5" as="geometry" />
        </mxCell>
        <mxCell id="2QL2H94MOp4iqxCznGAc-237" style="edgeStyle=orthogonalEdgeStyle;rounded=0;orthogonalLoop=1;jettySize=auto;html=1;entryX=0;entryY=0.5;entryDx=0;entryDy=0;strokeColor=#000000;" edge="1" parent="1" source="2QL2H94MOp4iqxCznGAc-238" target="2QL2H94MOp4iqxCznGAc-255">
          <mxGeometry relative="1" as="geometry" />
        </mxCell>
        <mxCell id="2QL2H94MOp4iqxCznGAc-238" value="压制，压制不了则驱逐" style="rounded=0;whiteSpace=wrap;html=1;fillColor=none;" vertex="1" parent="1">
          <mxGeometry x="1284.31" y="1220.2200000000012" width="140" height="39.5" as="geometry" />
        </mxCell>
        <mxCell id="2QL2H94MOp4iqxCznGAc-239" style="edgeStyle=orthogonalEdgeStyle;rounded=0;orthogonalLoop=1;jettySize=auto;html=1;entryX=0;entryY=0.5;entryDx=0;entryDy=0;strokeColor=#000000;" edge="1" parent="1" source="2QL2H94MOp4iqxCznGAc-240" target="2QL2H94MOp4iqxCznGAc-262">
          <mxGeometry relative="1" as="geometry" />
        </mxCell>
        <mxCell id="2QL2H94MOp4iqxCznGAc-240" value="解除压制" style="rounded=0;whiteSpace=wrap;html=1;fillColor=none;" vertex="1" parent="1">
          <mxGeometry x="1284.31" y="1030.340000000002" width="80" height="43" as="geometry" />
        </mxCell>
        <mxCell id="2QL2H94MOp4iqxCznGAc-241" style="edgeStyle=orthogonalEdgeStyle;rounded=0;orthogonalLoop=1;jettySize=auto;html=1;strokeColor=#000000;" edge="1" parent="1" source="2QL2H94MOp4iqxCznGAc-242" target="2QL2H94MOp4iqxCznGAc-263">
          <mxGeometry relative="1" as="geometry" />
        </mxCell>
        <mxCell id="2QL2H94MOp4iqxCznGAc-242" value="离线容器过载，关闭调度（下标签）" style="rounded=0;whiteSpace=wrap;html=1;fillColor=none;" vertex="1" parent="1">
          <mxGeometry x="1284.31" y="1314.340000000001" width="200" height="43" as="geometry" />
        </mxCell>
        <mxCell id="2QL2H94MOp4iqxCznGAc-243" style="edgeStyle=orthogonalEdgeStyle;rounded=0;orthogonalLoop=1;jettySize=auto;html=1;strokeColor=#000000;entryX=0.5;entryY=0;entryDx=0;entryDy=0;" edge="1" parent="1" source="2QL2H94MOp4iqxCznGAc-245" target="2QL2H94MOp4iqxCznGAc-215">
          <mxGeometry relative="1" as="geometry">
            <mxPoint x="1968.0468421052633" y="1652.2200000000012" as="targetPoint" />
          </mxGeometry>
        </mxCell>
        <mxCell id="2QL2H94MOp4iqxCznGAc-244" value="重启nm&lt;br&gt;vcore=core" style="edgeLabel;html=1;align=center;verticalAlign=middle;resizable=0;points=[];" vertex="1" connectable="0" parent="2QL2H94MOp4iqxCznGAc-243">
          <mxGeometry x="0.0709" y="-1" relative="1" as="geometry">
            <mxPoint x="-122" y="1" as="offset" />
          </mxGeometry>
        </mxCell>
        <mxCell id="2QL2H94MOp4iqxCznGAc-245" value="离线容器过载，去除超分（vcore==core）" style="rounded=0;whiteSpace=wrap;html=1;fillColor=none;" vertex="1" parent="1">
          <mxGeometry x="1284.31" y="1403.340000000001" width="240" height="43" as="geometry" />
        </mxCell>
        <mxCell id="2QL2H94MOp4iqxCznGAc-246" value="" style="shape=curlyBracket;whiteSpace=wrap;html=1;rounded=1;fillColor=none;" vertex="1" parent="1">
          <mxGeometry x="1240.88" y="1122.250000000001" width="20" height="320.18" as="geometry" />
        </mxCell>
        <mxCell id="2QL2H94MOp4iqxCznGAc-247" value="" style="edgeStyle=orthogonalEdgeStyle;rounded=0;orthogonalLoop=1;jettySize=auto;html=1;strokeColor=#000000;entryX=0.5;entryY=0;entryDx=0;entryDy=0;" edge="1" parent="1" source="2QL2H94MOp4iqxCznGAc-249" target="2QL2H94MOp4iqxCznGAc-215">
          <mxGeometry x="0.6341" y="-35" relative="1" as="geometry">
            <mxPoint x="1968.0468421052633" y="1652.2200000000012" as="targetPoint" />
            <mxPoint as="offset" />
          </mxGeometry>
        </mxCell>
        <mxCell id="2QL2H94MOp4iqxCznGAc-248" value="重启nm&lt;br&gt;vcore=core" style="edgeLabel;html=1;align=center;verticalAlign=middle;resizable=0;points=[];" vertex="1" connectable="0" parent="2QL2H94MOp4iqxCznGAc-247">
          <mxGeometry x="-0.4406" relative="1" as="geometry">
            <mxPoint x="-18" as="offset" />
          </mxGeometry>
        </mxCell>
        <mxCell id="2QL2H94MOp4iqxCznGAc-249" value="从离线容器掠夺若干核数，&lt;br&gt;调整到Agent/在线容器" style="rounded=0;whiteSpace=wrap;html=1;fillColor=none;" vertex="1" parent="1">
          <mxGeometry x="1541.75" y="1123.8600000000015" width="154" height="43.29" as="geometry" />
        </mxCell>
        <mxCell id="2QL2H94MOp4iqxCznGAc-250" style="edgeStyle=orthogonalEdgeStyle;rounded=0;orthogonalLoop=1;jettySize=auto;html=1;entryX=0.5;entryY=0;entryDx=0;entryDy=0;strokeColor=#000000;" edge="1" parent="1" source="2QL2H94MOp4iqxCznGAc-252" target="2QL2H94MOp4iqxCznGAc-215">
          <mxGeometry relative="1" as="geometry">
            <mxPoint x="1968.0099999999998" y="1652.2200000000012" as="targetPoint" />
          </mxGeometry>
        </mxCell>
        <mxCell id="2QL2H94MOp4iqxCznGAc-251" value="重启nm&lt;br&gt;vcore=core" style="edgeLabel;html=1;align=center;verticalAlign=middle;resizable=0;points=[];" vertex="1" connectable="0" parent="2QL2H94MOp4iqxCznGAc-250">
          <mxGeometry x="-0.8014" y="1" relative="1" as="geometry">
            <mxPoint as="offset" />
          </mxGeometry>
        </mxCell>
        <mxCell id="2QL2H94MOp4iqxCznGAc-252" value="从离线容器掠夺若干核数，&lt;br&gt;调整到Agent/在线容器" style="rounded=0;whiteSpace=wrap;html=1;fillColor=none;" vertex="1" parent="1">
          <mxGeometry x="1670.3799999999999" y="1176.930000000003" width="154" height="43.29" as="geometry" />
        </mxCell>
        <mxCell id="2QL2H94MOp4iqxCznGAc-253" style="edgeStyle=orthogonalEdgeStyle;rounded=0;orthogonalLoop=1;jettySize=auto;html=1;entryX=0;entryY=0.25;entryDx=0;entryDy=0;strokeColor=#000000;exitX=0.5;exitY=0;exitDx=0;exitDy=0;" edge="1" parent="1" source="2QL2H94MOp4iqxCznGAc-255" target="2QL2H94MOp4iqxCznGAc-252">
          <mxGeometry relative="1" as="geometry" />
        </mxCell>
        <mxCell id="2QL2H94MOp4iqxCznGAc-254" style="edgeStyle=orthogonalEdgeStyle;rounded=0;orthogonalLoop=1;jettySize=auto;html=1;entryX=0;entryY=0.5;entryDx=0;entryDy=0;strokeColor=#000000;exitX=0.5;exitY=1;exitDx=0;exitDy=0;" edge="1" parent="1" source="2QL2H94MOp4iqxCznGAc-255" target="2QL2H94MOp4iqxCznGAc-256">
          <mxGeometry relative="1" as="geometry">
            <mxPoint x="1708.2199999999998" y="1286.0700000000015" as="targetPoint" />
          </mxGeometry>
        </mxCell>
        <mxCell id="2QL2H94MOp4iqxCznGAc-255" value="离线容器&lt;br&gt;无核可分？" style="rhombus;whiteSpace=wrap;html=1;fillColor=none;" vertex="1" parent="1">
          <mxGeometry x="1541.75" y="1215.2200000000012" width="120" height="49" as="geometry" />
        </mxCell>
        <mxCell id="2QL2H94MOp4iqxCznGAc-256" value="关闭调度" style="rounded=0;whiteSpace=wrap;html=1;fillColor=#f9f7ed;align=center;strokeColor=#36393d;" vertex="1" parent="1">
          <mxGeometry x="1670.38" y="1263.2800000000034" width="79.63" height="38.12" as="geometry" />
        </mxCell>
        <mxCell id="2QL2H94MOp4iqxCznGAc-257" value="否" style="text;html=1;align=center;verticalAlign=middle;resizable=0;points=[];autosize=1;strokeColor=none;fillColor=none;" vertex="1" parent="1">
          <mxGeometry x="1614.31" y="1189.7200000000012" width="40" height="30" as="geometry" />
        </mxCell>
        <mxCell id="2QL2H94MOp4iqxCznGAc-258" value="是" style="text;html=1;align=center;verticalAlign=middle;resizable=0;points=[];autosize=1;strokeColor=none;fillColor=none;" vertex="1" parent="1">
          <mxGeometry x="1614.31" y="1259.7200000000012" width="40" height="30" as="geometry" />
        </mxCell>
        <mxCell id="2QL2H94MOp4iqxCznGAc-259" value="&lt;font color=&quot;#ff3333&quot;&gt;事件处理&lt;/font&gt;" style="text;html=1;align=center;verticalAlign=middle;resizable=0;points=[];autosize=1;strokeColor=none;fillColor=none;fontSize=39;" vertex="1" parent="1">
          <mxGeometry x="1534.31" y="893.7500000000018" width="180" height="60" as="geometry" />
        </mxCell>
        <mxCell id="2QL2H94MOp4iqxCznGAc-260" value="" style="endArrow=none;html=1;rounded=0;strokeColor=#000000;dashed=1;" edge="1" parent="1">
          <mxGeometry width="50" height="50" relative="1" as="geometry">
            <mxPoint x="1338.6100000000001" y="969.0100000000011" as="sourcePoint" />
            <mxPoint x="1984.7" y="968.5500000000011" as="targetPoint" />
          </mxGeometry>
        </mxCell>
        <mxCell id="2QL2H94MOp4iqxCznGAc-261" style="edgeStyle=orthogonalEdgeStyle;rounded=0;orthogonalLoop=1;jettySize=auto;html=1;entryX=0;entryY=0.5;entryDx=0;entryDy=0;strokeColor=#000000;" edge="1" parent="1" source="2QL2H94MOp4iqxCznGAc-262" target="2QL2H94MOp4iqxCznGAc-282">
          <mxGeometry relative="1" as="geometry" />
        </mxCell>
        <mxCell id="2QL2H94MOp4iqxCznGAc-262" value="Agent/在线容器还原至原核数，将掠夺核还回离线容器" style="rounded=0;whiteSpace=wrap;html=1;fillColor=none;" vertex="1" parent="1">
          <mxGeometry x="1541.75" y="1030.340000000001" width="154" height="43.29" as="geometry" />
        </mxCell>
        <mxCell id="2QL2H94MOp4iqxCznGAc-263" value="关闭调度" style="rounded=0;whiteSpace=wrap;html=1;fillColor=#f9f7ed;align=center;strokeColor=#36393d;" vertex="1" parent="1">
          <mxGeometry x="1555.81" y="1315.7800000000016" width="79.63" height="38.12" as="geometry" />
        </mxCell>
        <mxCell id="2QL2H94MOp4iqxCznGAc-264" value="关闭混部" style="rounded=0;whiteSpace=wrap;html=1;align=center;" vertex="1" parent="1">
          <mxGeometry x="1750.0099999999998" y="1263.2800000000016" width="78.56" height="38.12" as="geometry" />
        </mxCell>
        <mxCell id="2QL2H94MOp4iqxCznGAc-265" value="关闭调度" style="rounded=0;whiteSpace=wrap;html=1;fillColor=#f9f7ed;align=center;strokeColor=#36393d;" vertex="1" parent="1">
          <mxGeometry x="2277.5299999999997" y="1028.430000000003" width="79.63" height="38.12" as="geometry" />
        </mxCell>
        <mxCell id="2QL2H94MOp4iqxCznGAc-266" value="关闭混部" style="rounded=0;whiteSpace=wrap;html=1;align=center;" vertex="1" parent="1">
          <mxGeometry x="2357.1600000000003" y="1028.4300000000012" width="78.56" height="38.12" as="geometry" />
        </mxCell>
        <mxCell id="2QL2H94MOp4iqxCznGAc-267" value="关闭调度" style="rounded=0;whiteSpace=wrap;html=1;fillColor=#f9f7ed;align=center;strokeColor=#36393d;" vertex="1" parent="1">
          <mxGeometry x="2134.56" y="1268.1500000000033" width="79.63" height="38.12" as="geometry" />
        </mxCell>
        <mxCell id="2QL2H94MOp4iqxCznGAc-268" value="关闭混部" style="rounded=0;whiteSpace=wrap;html=1;align=center;" vertex="1" parent="1">
          <mxGeometry x="2214.19" y="1268.1500000000015" width="78.56" height="38.12" as="geometry" />
        </mxCell>
        <mxCell id="2QL2H94MOp4iqxCznGAc-269" value="&lt;font style=&quot;font-size: 39px;&quot; color=&quot;#ff3333&quot;&gt;恢&lt;br&gt;复&lt;br&gt;超&lt;br&gt;分&lt;/font&gt;" style="text;html=1;align=center;verticalAlign=middle;resizable=0;points=[];autosize=1;strokeColor=none;fillColor=none;fontSize=39;" vertex="1" parent="1">
          <mxGeometry x="1454.3099999999997" y="540.4400000000014" width="60" height="200" as="geometry" />
        </mxCell>
        <mxCell id="2QL2H94MOp4iqxCznGAc-270" value="是" style="text;html=1;align=center;verticalAlign=middle;resizable=0;points=[];autosize=1;strokeColor=none;fillColor=none;" vertex="1" parent="1">
          <mxGeometry x="1508.96" y="803.9100000000008" width="40" height="30" as="geometry" />
        </mxCell>
        <mxCell id="2QL2H94MOp4iqxCznGAc-271" value="是" style="text;html=1;align=center;verticalAlign=middle;resizable=0;points=[];autosize=1;strokeColor=none;fillColor=none;" vertex="1" parent="1">
          <mxGeometry x="1508.96" y="731.9100000000008" width="40" height="30" as="geometry" />
        </mxCell>
        <mxCell id="2QL2H94MOp4iqxCznGAc-272" value="是" style="text;html=1;align=center;verticalAlign=middle;resizable=0;points=[];autosize=1;strokeColor=none;fillColor=none;" vertex="1" parent="1">
          <mxGeometry x="1566.24" y="716.7400000000025" width="40" height="30" as="geometry" />
        </mxCell>
        <mxCell id="2QL2H94MOp4iqxCznGAc-273" value="是" style="text;html=1;align=center;verticalAlign=middle;resizable=0;points=[];autosize=1;strokeColor=none;fillColor=none;" vertex="1" parent="1">
          <mxGeometry x="1564.3100000000002" y="644.3600000000024" width="40" height="30" as="geometry" />
        </mxCell>
        <mxCell id="2QL2H94MOp4iqxCznGAc-274" value="否" style="text;html=1;align=center;verticalAlign=middle;resizable=0;points=[];autosize=1;strokeColor=none;fillColor=none;" vertex="1" parent="1">
          <mxGeometry x="1648.96" y="785.0000000000009" width="40" height="30" as="geometry" />
        </mxCell>
        <mxCell id="2QL2H94MOp4iqxCznGAc-275" value="否" style="text;html=1;align=center;verticalAlign=middle;resizable=0;points=[];autosize=1;strokeColor=none;fillColor=none;" vertex="1" parent="1">
          <mxGeometry x="1648.96" y="711.7800000000016" width="40" height="30" as="geometry" />
        </mxCell>
        <mxCell id="2QL2H94MOp4iqxCznGAc-276" value="否" style="text;html=1;align=center;verticalAlign=middle;resizable=0;points=[];autosize=1;strokeColor=none;fillColor=none;" vertex="1" parent="1">
          <mxGeometry x="1648.96" y="646.0400000000018" width="40" height="30" as="geometry" />
        </mxCell>
        <mxCell id="2QL2H94MOp4iqxCznGAc-277" value="否" style="text;html=1;align=center;verticalAlign=middle;resizable=0;points=[];autosize=1;strokeColor=none;fillColor=none;" vertex="1" parent="1">
          <mxGeometry x="1648.96" y="566.0400000000018" width="40" height="30" as="geometry" />
        </mxCell>
        <mxCell id="2QL2H94MOp4iqxCznGAc-278" style="edgeStyle=orthogonalEdgeStyle;rounded=0;orthogonalLoop=1;jettySize=auto;html=1;strokeColor=#000000;entryX=0.5;entryY=0;entryDx=0;entryDy=0;exitX=0.992;exitY=0.545;exitDx=0;exitDy=0;exitPerimeter=0;" edge="1" parent="1" source="2QL2H94MOp4iqxCznGAc-279" target="2QL2H94MOp4iqxCznGAc-215">
          <mxGeometry relative="1" as="geometry">
            <mxPoint x="1994.31" y="1560.8100000000013" as="targetPoint" />
          </mxGeometry>
        </mxCell>
        <mxCell id="2QL2H94MOp4iqxCznGAc-279" value="&lt;span style=&quot;font-size: 11px; background-color: rgb(255, 255, 255);&quot;&gt;重启nm&lt;/span&gt;&lt;br style=&quot;font-size: 11px;&quot;&gt;&lt;span style=&quot;font-size: 11px; background-color: rgb(255, 255, 255);&quot;&gt;vcore=core&lt;/span&gt;" style="text;html=1;align=center;verticalAlign=middle;resizable=0;points=[];autosize=1;strokeColor=none;fillColor=none;" vertex="1" parent="1">
          <mxGeometry x="1844.6" y="984.6000000000013" width="80" height="40" as="geometry" />
        </mxCell>
        <mxCell id="2QL2H94MOp4iqxCznGAc-280" style="edgeStyle=orthogonalEdgeStyle;rounded=0;orthogonalLoop=1;jettySize=auto;html=1;entryX=-0.009;entryY=0.492;entryDx=0;entryDy=0;entryPerimeter=0;strokeColor=#000000;exitX=0.5;exitY=0;exitDx=0;exitDy=0;" edge="1" parent="1" source="2QL2H94MOp4iqxCznGAc-282" target="2QL2H94MOp4iqxCznGAc-279">
          <mxGeometry relative="1" as="geometry" />
        </mxCell>
        <mxCell id="2QL2H94MOp4iqxCznGAc-281" style="edgeStyle=orthogonalEdgeStyle;rounded=0;orthogonalLoop=1;jettySize=auto;html=1;strokeColor=#000000;exitX=0.5;exitY=1;exitDx=0;exitDy=0;" edge="1" parent="1" source="2QL2H94MOp4iqxCznGAc-282" target="2QL2H94MOp4iqxCznGAc-284">
          <mxGeometry relative="1" as="geometry" />
        </mxCell>
        <mxCell id="2QL2H94MOp4iqxCznGAc-282" value="离线容器&lt;br&gt;是否恢复？" style="rhombus;whiteSpace=wrap;html=1;fillColor=none;" vertex="1" parent="1">
          <mxGeometry x="1722.3100000000002" y="1026.7800000000025" width="104" height="52" as="geometry" />
        </mxCell>
        <mxCell id="2QL2H94MOp4iqxCznGAc-283" style="edgeStyle=orthogonalEdgeStyle;rounded=0;orthogonalLoop=1;jettySize=auto;html=1;entryX=0.5;entryY=0;entryDx=0;entryDy=0;strokeColor=#000000;" edge="1" parent="1" target="2QL2H94MOp4iqxCznGAc-215">
          <mxGeometry relative="1" as="geometry">
            <mxPoint x="1944.31" y="1096.8100000000013" as="sourcePoint" />
            <Array as="points">
              <mxPoint x="1969.31" y="1096.8100000000013" />
            </Array>
          </mxGeometry>
        </mxCell>
        <mxCell id="2QL2H94MOp4iqxCznGAc-284" value="&lt;span style=&quot;font-size: 11px; background-color: rgb(255, 255, 255);&quot;&gt;重启nm，超分&lt;/span&gt;&lt;br style=&quot;font-size: 11px;&quot;&gt;&lt;span style=&quot;font-size: 11px; background-color: rgb(255, 255, 255);&quot;&gt;vcore/core = 4/3&lt;/span&gt;" style="text;html=1;align=center;verticalAlign=middle;resizable=0;points=[];autosize=1;strokeColor=none;fillColor=none;" vertex="1" parent="1">
          <mxGeometry x="1841.97" y="1078.6900000000005" width="110" height="40" as="geometry" />
        </mxCell>
        <mxCell id="2QL2H94MOp4iqxCznGAc-285" value="&lt;font style=&quot;font-size: 39px;&quot; color=&quot;#ff3333&quot;&gt;解&lt;br&gt;除&lt;br&gt;压&lt;br&gt;制&lt;br&gt;&lt;/font&gt;" style="text;html=1;align=center;verticalAlign=middle;resizable=0;points=[];autosize=1;strokeColor=none;fillColor=none;fontSize=39;" vertex="1" parent="1">
          <mxGeometry x="1779.6599999999999" y="540.0600000000004" width="60" height="200" as="geometry" />
        </mxCell>
        <mxCell id="2QL2H94MOp4iqxCznGAc-286" value="离线容器&amp;nbsp; &amp;nbsp; &amp;nbsp; &amp;nbsp; &amp;nbsp; &amp;nbsp; &amp;nbsp; &amp;nbsp; &amp;nbsp; &amp;nbsp;&amp;nbsp;&lt;br&gt;&lt;br&gt;&lt;br&gt;&lt;br&gt;&lt;br&gt;&lt;br&gt;&lt;br&gt;" style="rounded=0;whiteSpace=wrap;html=1;fillColor=none;" vertex="1" parent="1">
          <mxGeometry x="1902.8400000000001" y="1539.430000000002" width="133.4" height="130.12" as="geometry" />
        </mxCell>
      </root>
    </mxGraphModel>
  </diagram>
</mxfile>
